<svg width="18" height="18" viewBox="0 0 18 18" fill="none" xmlns="http://www.w3.org/2000/svg">
  <path
    d="M2.4975 6.68251C2.4975 6.54001 2.55 6.39751 2.6625 6.28501C2.88 6.06751 3.24 6.06751 3.4575 6.28501L8.3475 11.175C8.7075 11.535 9.2925 11.535 9.6525 11.175L14.5425 6.28501C14.76 6.06751 15.12 6.06751 15.3375 6.28501C15.555 6.50251 15.555 6.86251 15.3375 7.08001L10.4475 11.97C10.065 12.3525 9.5475 12.57 9 12.57C8.4525 12.57 7.935 12.36 7.5525 11.97L2.6625 7.08001C2.5575 6.96751 2.4975 6.82501 2.4975 6.68251Z"
    fill="#4F4F4F" />
</svg>