<svg width="232" height="201" viewBox="0 0 232 201" fill="none" xmlns="http://www.w3.org/2000/svg">
  <path
    d="M119.17 176.969C159.229 176.969 191.786 144.412 191.786 104.353C191.786 64.294 159.229 31.7368 119.17 31.7368C78.9609 31.7368 46.5537 64.144 46.5537 104.353C46.5537 144.412 78.9609 176.969 119.17 176.969Z"
    fill="#d6f4cf" />
  <path
    d="M73.4778 84.5027H161.256C164.544 84.5027 167.503 87.2971 167.503 90.7491V146.145C167.503 149.432 164.708 152.391 161.256 152.391H73.4778C70.1903 152.391 67.2314 149.597 67.2314 146.145V90.7491C67.2314 87.2971 70.1903 84.5027 73.4778 84.5027Z"
    fill="url(#paint0_linear_896_4661)" />
  <path
    d="M203.639 86.1989C205.889 84.0985 206.039 80.6477 203.939 78.3972C201.838 76.1467 198.388 75.9967 196.137 78.0971C193.887 80.1976 193.737 83.6484 195.837 85.8989C197.787 87.9993 201.388 88.2994 203.639 86.1989Z"
    fill="#d6f4cf" />
  <path
    d="M203.938 61.4434C204.838 60.5432 204.988 59.0429 204.088 58.1427C203.188 57.2425 201.688 57.0924 200.788 57.9926C199.887 58.8928 199.737 60.3932 200.638 61.2934C201.538 62.3436 203.038 62.3436 203.938 61.4434Z"
    fill="#d6f4cf" />
  <path
    d="M144.976 27.3858C145.576 26.7857 145.726 25.7355 145.126 25.1353C144.526 24.5352 143.475 24.3852 142.875 24.9853C142.275 25.5854 142.125 26.6357 142.725 27.2358C143.325 27.8359 144.376 27.986 144.976 27.3858Z"
    fill="#d6f4cf" />
  <g filter="url(#filter0_d_896_4661)">
    <path
      d="M199.392 55.2432L177.53 94.201C176.708 95.516 175.064 96.0092 173.913 95.1873L136.435 73.3249C135.12 72.503 134.627 70.8592 135.449 69.7085L164.215 20.066C165.037 18.751 166.681 18.2579 167.831 19.0798L194.954 34.8602L199.392 55.2432Z"
      fill="#F2F6FA" />
  </g>
  <path d="M194.954 34.8602L188.707 45.3804C187.886 47.0242 188.379 48.668 189.858 49.6543L199.228 55.0788"
    fill="#D5DAE6" />
  <path
    d="M169.146 45.0517C169.804 44.8873 170.461 44.8873 170.955 44.8873C171.612 44.8873 172.27 44.8873 172.927 44.8873C173.585 45.0517 174.407 45.2161 175.064 45.3804C175.886 45.7092 176.543 46.038 177.201 46.3667C178.187 46.8598 179.009 47.5174 179.667 48.3393C180.324 48.9968 180.817 49.8187 181.146 50.8049C181.475 51.6268 181.475 52.6131 181.475 53.435C181.31 54.4213 180.982 55.4076 180.489 56.2295C179.995 57.0514 179.502 57.7089 178.845 58.3664C178.187 58.8595 177.694 59.1883 176.872 59.517C176.215 59.8458 175.557 60.0102 174.9 60.0102L173.092 60.1746C172.598 60.1746 172.105 60.3389 171.448 60.5033C170.955 60.6677 170.626 60.8321 170.297 61.1608L168.489 63.4621L165.53 61.8183L166.845 58.8595C167.009 58.3664 167.503 57.8732 167.831 57.5445C168.325 57.2157 168.818 57.0513 169.311 56.887C169.968 56.7226 170.461 56.7226 171.119 56.5582C171.776 56.5582 172.434 56.3938 173.092 56.2295C173.749 56.0651 174.242 55.9007 174.9 55.5719C175.557 55.2432 175.886 54.75 176.215 54.0925C176.379 53.7638 176.543 53.2706 176.708 52.7775C176.708 52.2844 176.708 51.9556 176.543 51.6268C176.379 51.1337 176.215 50.8049 175.886 50.4762C175.557 50.1474 175.228 49.8187 174.735 49.4899C174.242 49.1612 173.585 48.8324 172.927 48.668C172.434 48.5036 171.941 48.5036 171.448 48.5036C170.955 48.5036 170.626 48.5036 170.297 48.5036C170.133 48.5036 169.804 48.5036 169.64 48.3393C169.311 48.1749 168.982 47.6817 168.982 47.353L169.146 45.0517ZM160.763 66.7497C160.927 66.421 161.256 66.0922 161.585 65.7634C161.914 65.5991 162.242 65.2703 162.571 65.2703C163.393 65.1059 164.215 65.1059 164.873 65.5991C165.201 65.7634 165.53 66.0922 165.859 66.421C166.023 66.7497 166.188 67.0785 166.352 67.4072C166.845 69.051 165.859 70.5304 164.215 71.0236C163.393 71.188 162.571 71.0236 161.914 70.6948C161.585 70.5304 161.256 70.2017 160.927 69.8729C160.763 69.5442 160.434 69.2154 160.434 68.8866C160.27 68.5579 160.27 68.0647 160.434 67.736C160.434 67.4072 160.599 67.0785 160.763 66.7497Z"
    fill="#79B669" />
  <g filter="url(#filter1_d_896_4661)">
    <path
      d="M58.8481 38.3121L83.8337 64.4484C84.6556 65.4347 84.6556 66.7497 83.6693 67.5716L58.1906 91.7353C57.2043 92.5572 55.8893 92.5572 55.0674 91.571L23.1778 57.8733C22.3559 56.887 22.3559 55.5719 23.3422 54.75L41.9171 37.3259L58.8481 38.3121Z"
      fill="#F2F6FA" />
  </g>
  <path d="M41.7527 36.9971L48.6566 44.2298C49.6429 45.216 51.2867 45.216 52.2729 44.2298L58.6837 38.1477"
    fill="#D5DAE6" />
  <path
    d="M43.7253 59.5171C43.7253 59.0239 43.8897 58.5308 44.0541 58.0376C44.2185 57.5445 44.3829 57.0514 44.5472 56.5582C44.7116 56.0651 45.0404 55.572 45.3691 55.0788C45.6979 54.5857 46.191 54.0925 46.6842 53.5994C47.3417 52.9419 47.9992 52.4488 48.8211 52.12C49.4786 51.7912 50.3005 51.6269 50.958 51.6269C51.6155 51.6269 52.4374 51.7912 53.095 51.9556C53.7525 52.2844 54.41 52.7775 55.0675 53.2707C55.5606 53.7638 56.0538 54.4213 56.2182 55.0788C56.3825 55.572 56.5469 56.2295 56.7113 56.887C56.7113 57.3801 56.7113 58.0376 56.7113 58.5308C56.5469 59.0239 56.5469 59.5171 56.3825 60.0102C56.3825 60.5033 56.2182 60.8321 56.2182 61.3252C56.2182 61.654 56.2182 61.9827 56.5469 62.3115L57.8619 64.284L55.8894 66.0922L53.9168 64.284C53.5881 63.9553 53.2593 63.6265 53.095 63.1334C52.9306 62.6403 52.9306 62.3115 52.9306 61.8184C52.9306 61.3252 53.095 60.8321 53.095 60.339C53.2593 59.8458 53.2593 59.3527 53.2593 58.8595C53.2593 58.3664 53.2593 57.8733 53.095 57.3801C52.9306 56.887 52.6018 56.3939 52.2731 55.9007C52.1087 55.572 51.7799 55.4076 51.4512 55.2432C51.1224 55.0788 50.7936 55.0788 50.4649 55.0788C50.1361 55.0788 49.8074 55.2432 49.4786 55.4076C49.1499 55.572 48.8211 55.7363 48.4923 56.0651C48.1636 56.3939 47.8348 56.887 47.5061 57.2157C47.3417 57.5445 47.1773 57.8733 47.0129 58.3664C46.8485 58.6952 46.8485 59.0239 46.8485 59.1883C46.8485 59.3527 46.6842 59.5171 46.5198 59.6814C46.3554 60.0102 45.8623 60.0102 45.5335 59.8458L43.7253 59.5171ZM58.8482 71.0236C58.6838 70.8592 58.5195 70.5305 58.3551 70.2017C58.1907 69.8729 58.1907 69.5442 58.1907 69.2154C58.1907 68.5579 58.5195 67.9004 59.0126 67.4073C59.177 67.2429 59.5057 67.0785 59.8345 66.9141C60.1633 66.7497 60.492 66.7497 60.8208 66.7497C61.807 66.7497 62.7933 67.4073 63.1221 68.3935C63.2865 68.7223 63.2865 69.051 63.2865 69.3798C63.2865 69.7086 63.1221 70.0373 63.1221 70.3661C62.9577 70.6948 62.7933 70.8592 62.4646 71.188C62.3002 71.3523 61.9714 71.6811 61.6427 71.6811C60.9851 71.8455 60.3276 71.8455 59.8345 71.6811C59.3414 71.5167 59.0126 71.3524 58.8482 71.0236Z"
    fill="#79B669" />
  <g filter="url(#filter2_d_896_4661)">
    <path
      d="M124.107 79.4069L114.408 114.091C114.08 115.242 112.765 116.063 111.614 115.57L77.9162 105.708C76.7655 105.379 75.9436 104.064 76.4368 102.913L89.5871 58.202C89.9159 57.0513 91.2309 56.2294 92.3815 56.7226L116.874 63.9553L124.107 79.4069Z"
      fill="#F2F6FA" />
  </g>
  <path d="M116.877 64.0161L113.751 73.818C113.422 75.133 114.244 76.6124 115.559 76.9412L124.229 79.391"
    fill="#D5DAE6" />
  <path
    d="M98.299 77.2699C98.7921 77.1056 99.2853 76.9412 99.7784 76.7768C100.272 76.6124 100.765 76.448 101.422 76.448C102.08 76.448 102.573 76.448 103.23 76.448C103.888 76.448 104.545 76.6124 105.203 76.7768C106.025 76.9412 106.847 77.4343 107.504 77.9275C108.162 78.4206 108.655 78.9137 109.148 79.5712C109.477 80.2288 109.806 80.8863 109.97 81.5438C110.134 82.3657 109.97 83.1876 109.806 83.8451C109.641 84.5026 109.312 85.1601 108.819 85.8177C108.491 86.3108 107.997 86.8039 107.504 87.1327C107.011 87.4614 106.518 87.7902 106.025 87.9546L104.545 88.4477C104.217 88.6121 103.724 88.7765 103.395 88.9409C103.066 89.1052 102.737 89.434 102.737 89.7628L101.751 91.8997L99.1209 90.749L99.614 88.119C99.614 87.6258 99.9428 87.2971 100.272 86.9683C100.6 86.6395 100.929 86.3108 101.422 86.1464C101.915 85.982 102.408 85.8177 102.737 85.6533C103.23 85.4889 103.724 85.3245 104.217 84.9958C104.71 84.8314 105.039 84.5026 105.532 84.1739C105.86 83.8451 106.189 83.352 106.354 82.6944C106.354 82.5301 106.354 82.2013 106.354 81.8726C106.354 81.5438 106.189 81.215 106.025 80.8863C105.86 80.5575 105.532 80.3931 105.203 80.0644C104.874 79.9 104.545 79.7356 104.052 79.5712C103.559 79.4069 103.066 79.4069 102.408 79.4069C102.08 79.4069 101.587 79.4069 101.258 79.5712C100.929 79.5712 100.6 79.7356 100.436 79.7356C100.272 79.7356 100.107 79.9 99.7784 79.7356C99.4497 79.7356 99.1209 79.4069 99.1209 79.0781L98.299 77.2699ZM95.8333 96.1735C95.9977 95.8448 95.9977 95.516 96.3265 95.3516C96.4908 95.0229 96.8196 94.8585 96.984 94.6941C97.6415 94.3654 98.299 94.3654 98.7922 94.5297C99.1209 94.6941 99.4497 94.8585 99.614 95.0229C99.7784 95.1873 100.107 95.516 100.272 95.6804C100.929 96.8311 100.436 98.3105 99.2853 98.8036C98.6278 99.1324 97.9702 99.1324 97.4771 98.968C97.1484 98.8036 96.8196 98.8036 96.6552 98.4748C96.3265 98.3105 96.1621 97.9817 95.9977 97.8173C95.8333 97.4886 95.8333 97.3242 95.6689 96.9954C95.8333 96.8311 95.8333 96.5023 95.8333 96.1735Z"
    fill="#79B669" />
  <g filter="url(#filter3_d_896_4661)">
    <path
      d="M203.337 138.748L171.448 156.008C170.461 156.501 168.982 156.172 168.489 155.021L152.544 123.954C152.051 122.967 152.38 121.488 153.53 120.995L194.954 99.1324C195.94 98.6392 197.42 98.968 197.913 100.119L209.419 122.639L203.337 138.748Z"
      fill="#F2F6FA" />
  </g>
  <path d="M209.255 122.967L200.379 127.57C199.228 128.227 198.735 129.871 199.228 131.022L203.173 138.912"
    fill="#D5DAE6" />
  <path
    d="M187.228 118.694C187.721 118.858 188.05 119.187 188.543 119.351C189.036 119.515 189.365 119.844 189.858 120.337C190.351 120.83 190.68 121.159 191.009 121.652C191.502 122.145 191.831 122.639 192.16 123.296C192.653 123.954 192.817 124.94 192.817 125.597C192.982 126.419 192.817 127.077 192.817 127.899C192.653 128.556 192.324 129.214 191.995 129.871C191.502 130.529 190.845 131.022 190.187 131.351C189.694 131.679 188.872 131.844 188.215 132.008C187.721 132.173 186.899 132.173 186.406 132.008C185.913 131.844 185.256 131.844 184.763 131.515L183.448 130.858C183.119 130.693 182.626 130.529 182.297 130.364C181.968 130.2 181.475 130.2 181.311 130.529L179.174 131.351L178.023 128.885L180.16 127.406C180.489 127.077 180.982 127.077 181.475 127.077C181.968 127.077 182.297 127.077 182.79 127.241C183.283 127.406 183.612 127.734 183.941 127.899C184.434 128.063 184.763 128.392 185.42 128.556C185.913 128.721 186.242 128.721 186.899 128.885C187.393 128.885 187.886 128.721 188.543 128.392C189.036 128.063 189.694 127.57 189.694 126.748C189.858 126.419 189.694 126.091 189.694 125.597C189.53 125.269 189.53 124.94 189.201 124.447C189.036 123.954 188.708 123.625 188.379 123.132C188.215 122.967 187.886 122.639 187.557 122.474C187.393 122.31 187.064 122.145 186.899 121.981C186.735 121.817 186.571 121.817 186.406 121.488C186.242 121.324 186.242 120.83 186.406 120.666L187.228 118.694ZM171.941 130.036C172.27 129.871 172.434 129.707 172.927 129.871C173.256 129.707 173.585 129.871 173.749 129.871C174.407 130.036 174.9 130.529 175.064 131.022C175.229 131.351 175.229 131.679 175.229 132.008C175.229 132.173 175.229 132.666 175.229 132.83C175.064 133.323 174.571 133.981 174.078 134.145C173.749 134.31 173.42 134.31 173.092 134.31C172.927 134.31 172.434 134.31 172.27 134.31C171.612 134.145 171.119 133.652 170.955 133.159C170.79 132.83 170.79 132.501 170.79 132.173C170.626 131.844 170.79 131.515 170.79 131.351C170.955 131.022 171.119 130.858 171.119 130.529C171.283 130.364 171.777 130.364 171.941 130.036Z"
    fill="#79B669" />
  <path
    d="M169.146 120.173V147.46C169.146 150.912 166.188 153.871 162.736 153.871H72.4916C69.0396 153.871 66.0808 150.912 66.0808 147.46V117.872"
    stroke="#1676EE" stroke-width="3" stroke-linecap="round" stroke-linejoin="round" />
  <path
    d="M165.694 102.584H134.791C131.832 102.584 128.874 103.571 126.572 105.543L118.353 112.118C116.052 113.927 113.093 115.077 110.134 115.077H74.9572C71.5052 115.077 68.5464 117.872 68.5464 121.488C68.5464 121.817 68.5464 122.145 68.7108 122.474L75.1216 156.172C75.6147 159.295 78.4091 161.761 81.5323 161.761H156.654C159.941 161.761 162.571 159.46 163.064 156.336L172.105 109.981C172.598 106.529 170.297 103.242 166.681 102.749C166.352 102.584 166.023 102.584 165.694 102.584Z"
    fill="white" />
  <g filter="url(#filter4_d_896_4661)">
    <path
      d="M174.242 96.5023H137.421C133.969 96.5023 130.353 97.8174 127.723 99.9543L117.86 108.009C115.066 110.31 111.614 111.461 108.162 111.461H65.9165C61.807 111.461 58.1907 114.748 58.1907 119.187C58.1907 119.515 58.1907 120.009 58.3551 120.337L66.0809 161.268C66.7384 165.048 69.8616 168.007 73.8067 168.007H163.393C167.174 168.007 170.462 165.213 171.119 161.432L181.804 105.379C182.461 101.269 179.667 97.1599 175.393 96.5023C175.064 96.5023 174.571 96.5023 174.242 96.5023Z"
      fill="url(#paint1_linear_896_4661)" />
  </g>
  <path
    d="M103.23 139.57C105.367 139.57 107.175 137.761 107.175 135.625C107.175 133.488 105.367 131.679 103.23 131.679C101.093 131.679 99.2852 133.488 99.2852 135.625C99.2852 137.761 101.093 139.57 103.23 139.57Z"
    fill="#79B669" />
  <path
    d="M133.97 138.912C136.106 138.912 137.915 137.104 137.915 134.967C137.915 132.83 136.106 131.022 133.97 131.022C131.833 131.022 130.024 132.83 130.024 134.967C130.024 137.104 131.833 138.912 133.97 138.912Z"
    fill="#79B669" />
  <path
    d="M126.901 145.487H124.764C122.956 141.871 118.518 140.392 115.066 142.364C113.586 143.022 112.436 144.337 111.943 145.487H109.806C111.614 140.72 117.038 138.255 121.641 140.063C124.107 141.049 125.915 143.022 126.901 145.487Z"
    fill="#79B669" />
  <path
    d="M189.201 181.322C187.392 181.322 188.05 181.486 174.078 167.514C160.599 177.541 141.859 167.843 141.859 151.405C141.859 140.392 150.9 131.351 161.914 131.351C177.858 131.351 187.721 149.268 178.352 162.912L191.337 175.897C193.474 177.87 192.159 181.322 189.201 181.322ZM162.078 137.762C154.517 137.762 148.27 143.844 148.27 151.569C148.27 159.295 154.352 165.377 162.078 165.377C162.9 165.377 163.722 165.377 164.544 165.213C165.366 165.048 166.187 164.884 166.845 164.555C167.667 164.227 168.324 163.898 168.982 163.569C169.804 163.076 170.461 162.583 171.119 161.925C171.612 161.432 172.27 160.775 172.763 160.281C173.256 159.624 173.749 158.966 174.078 158.309C174.406 157.651 174.735 156.829 175.064 156.008C175.393 155.186 175.557 154.364 175.557 153.542C175.557 152.884 175.721 152.391 175.721 151.734C175.886 143.844 169.639 137.762 162.078 137.762Z"
    fill="#71bf5d" />
  <path d="M93.5322 128.885L102.409 124.118" stroke="#79B669" stroke-width="1.5" stroke-miterlimit="10" />
  <path d="M141.695 126.584L132.819 121.652" stroke="#79B669" stroke-width="1.5" stroke-miterlimit="10" />
  <defs>
    <filter id="filter0_d_896_4661" x="113.047" y="7.67795" width="108.345" height="120.911"
      filterUnits="userSpaceOnUse" color-interpolation-filters="sRGB">
      <feFlood flood-opacity="0" result="BackgroundImageFix" />
      <feColorMatrix in="SourceAlpha" type="matrix" values="0 0 0 0 0 0 0 0 0 0 0 0 0 0 0 0 0 0 127 0"
        result="hardAlpha" />
      <feOffset dy="11" />
      <feGaussianBlur stdDeviation="11" />
      <feColorMatrix type="matrix" values="0 0 0 0 0.397708 0 0 0 0 0.47749 0 0 0 0 0.575 0 0 0 0.27 0" />
      <feBlend mode="normal" in2="BackgroundImageFix" result="effect1_dropShadow_896_4661" />
      <feBlend mode="normal" in="SourceGraphic" in2="effect1_dropShadow_896_4661" result="shape" />
    </filter>
    <filter id="filter1_d_896_4661" x="0.580566" y="26.3259" width="105.85" height="99.0067"
      filterUnits="userSpaceOnUse" color-interpolation-filters="sRGB">
      <feFlood flood-opacity="0" result="BackgroundImageFix" />
      <feColorMatrix in="SourceAlpha" type="matrix" values="0 0 0 0 0 0 0 0 0 0 0 0 0 0 0 0 0 0 127 0"
        result="hardAlpha" />
      <feOffset dy="11" />
      <feGaussianBlur stdDeviation="11" />
      <feColorMatrix type="matrix" values="0 0 0 0 0.397708 0 0 0 0 0.47749 0 0 0 0 0.575 0 0 0 0.27 0" />
      <feBlend mode="normal" in2="BackgroundImageFix" result="effect1_dropShadow_896_4661" />
      <feBlend mode="normal" in="SourceGraphic" in2="effect1_dropShadow_896_4661" result="shape" />
    </filter>
    <filter id="filter2_d_896_4661" x="54.2908" y="45.5766" width="91.8162" height="103.14" filterUnits="userSpaceOnUse"
      color-interpolation-filters="sRGB">
      <feFlood flood-opacity="0" result="BackgroundImageFix" />
      <feColorMatrix in="SourceAlpha" type="matrix" values="0 0 0 0 0 0 0 0 0 0 0 0 0 0 0 0 0 0 127 0"
        result="hardAlpha" />
      <feOffset dy="11" />
      <feGaussianBlur stdDeviation="11" />
      <feColorMatrix type="matrix" values="0 0 0 0 0.397708 0 0 0 0 0.47749 0 0 0 0 0.575 0 0 0 0.27 0" />
      <feBlend mode="normal" in2="BackgroundImageFix" result="effect1_dropShadow_896_4661" />
      <feBlend mode="normal" in="SourceGraphic" in2="effect1_dropShadow_896_4661" result="shape" />
    </filter>
    <filter id="filter3_d_896_4661" x="130.322" y="87.9105" width="101.097" height="101.319"
      filterUnits="userSpaceOnUse" color-interpolation-filters="sRGB">
      <feFlood flood-opacity="0" result="BackgroundImageFix" />
      <feColorMatrix in="SourceAlpha" type="matrix" values="0 0 0 0 0 0 0 0 0 0 0 0 0 0 0 0 0 0 127 0"
        result="hardAlpha" />
      <feOffset dy="11" />
      <feGaussianBlur stdDeviation="11" />
      <feColorMatrix type="matrix" values="0 0 0 0 0.397708 0 0 0 0 0.47749 0 0 0 0 0.575 0 0 0 0.27 0" />
      <feBlend mode="normal" in2="BackgroundImageFix" result="effect1_dropShadow_896_4661" />
      <feBlend mode="normal" in="SourceGraphic" in2="effect1_dropShadow_896_4661" result="shape" />
    </filter>
    <filter id="filter4_d_896_4661" x="36.1907" y="85.5023" width="167.709" height="115.505"
      filterUnits="userSpaceOnUse" color-interpolation-filters="sRGB">
      <feFlood flood-opacity="0" result="BackgroundImageFix" />
      <feColorMatrix in="SourceAlpha" type="matrix" values="0 0 0 0 0 0 0 0 0 0 0 0 0 0 0 0 0 0 127 0"
        result="hardAlpha" />
      <feOffset dy="11" />
      <feGaussianBlur stdDeviation="11" />
      <feColorMatrix type="matrix" values="0 0 0 0 0.397708 0 0 0 0 0.47749 0 0 0 0 0.575 0 0 0 0.27 0" />
      <feBlend mode="normal" in2="BackgroundImageFix" result="effect1_dropShadow_896_4661" />
      <feBlend mode="normal" in="SourceGraphic" in2="effect1_dropShadow_896_4661" result="shape" />
    </filter>
    <linearGradient id="paint0_linear_896_4661" x1="117.367" y1="89.4937" x2="117.367" y2="115.156"
      gradientUnits="userSpaceOnUse">
      <stop stop-color="#b3eda4" />
      <stop offset="1" stop-color="#79B669" />
    </linearGradient>
    <linearGradient id="paint1_linear_896_4661" x1="120.005" y1="94.8484" x2="120.005" y2="168.778"
      gradientUnits="userSpaceOnUse">
      <stop stop-color="#FDFEFF" />
      <stop offset="0.9964" stop-color="#ECF0F5" />
    </linearGradient>
  </defs>
</svg>