<svg width="138" height="103" viewBox="0 0 138 103" fill="none" xmlns="http://www.w3.org/2000/svg">
  <path
    d="M112.162 49.1318L113.678 29.417C113.985 25.5788 114.265 22.8297 114.508 21.1726C114.84 18.9152 115.705 17.2488 117.109 16.1606C118.516 15.0805 120.216 14.6836 122.208 14.9763C124.612 15.3294 126.107 16.3773 126.678 18.1074C127.255 19.8489 127.326 22.2377 126.879 25.2795C126.616 27.0675 126.249 28.8746 125.777 30.692L121.019 50.5126C120.472 52.8767 119.785 54.649 118.955 55.8305C118.12 57.0173 116.961 57.4935 115.472 57.2747C113.965 57.0534 112.996 56.2811 112.597 54.9627C112.182 53.6374 112.041 51.6939 112.162 49.1318V49.1318ZM112.888 76.6254C111.18 76.3744 109.769 75.6229 108.65 74.3596C107.53 73.1007 107.114 71.5062 107.398 69.5783C107.645 67.8963 108.463 66.5478 109.854 65.5479C111.251 64.5413 112.827 64.1715 114.596 64.4313C116.365 64.6912 117.779 65.5002 118.856 66.8701C119.92 68.2306 120.345 69.7619 120.098 71.4439C119.819 73.3423 118.963 74.7469 117.548 75.6456C116.184 76.5344 114.519 76.8846 112.888 76.6254"
    fill="#79B669" />
  <path
    d="M36.3363 81.5714C36.3852 81.1749 36.4361 80.75 36.487 80.3078C36.7362 78.1434 37.0001 75.4454 37.0001 73.632V72.9267L36.5577 72.3775C31.5164 66.1182 28.5001 58.1641 28.5001 49.5C28.5001 29.3416 44.8417 13 65.0001 13C85.1585 13 101.5 29.3416 101.5 49.5C101.5 69.6584 85.1585 86 65.0001 86C58.2505 86 51.9345 84.1698 46.5146 80.9799L46.0984 80.7349L45.6162 80.7069C43.6353 80.5917 40.567 80.9496 38.1537 81.2957C37.508 81.3883 36.8929 81.4826 36.3363 81.5714Z"
    stroke="#79B669" stroke-width="4" />
  <mask id="path-3-inside-1_1_46" fill="white">
    <ellipse cx="66.0001" cy="56.5" rx="3.5" ry="6.5" />
  </mask>
  <path
    d="M65.5001 56.5C65.5001 57.7655 65.2153 58.7128 64.9531 59.1998C64.8243 59.439 64.7715 59.438 64.8916 59.3436C65.0374 59.229 65.4241 59 66.0001 59V67C69.1432 67 71.0801 64.6952 71.9969 62.9926C73.0014 61.127 73.5001 58.8244 73.5001 56.5H65.5001ZM66.0001 59C66.5762 59 66.9628 59.229 67.1086 59.3436C67.2288 59.438 67.1759 59.439 67.0471 59.1998C66.7849 58.7128 66.5001 57.7655 66.5001 56.5H58.5001C58.5001 58.8244 58.9988 61.127 60.0034 62.9926C60.9202 64.6952 62.857 67 66.0001 67V59ZM66.5001 56.5C66.5001 55.2345 66.7849 54.2872 67.0471 53.8002C67.1759 53.561 67.2288 53.562 67.1086 53.6564C66.9628 53.771 66.5762 54 66.0001 54V46C62.857 46 60.9202 48.3048 60.0034 50.0074C58.9988 51.873 58.5001 54.1756 58.5001 56.5H66.5001ZM66.0001 54C65.4241 54 65.0374 53.771 64.8916 53.6564C64.7715 53.562 64.8243 53.561 64.9531 53.8002C65.2153 54.2872 65.5001 55.2345 65.5001 56.5H73.5001C73.5001 54.1756 73.0014 51.873 71.9969 50.0074C71.0801 48.3048 69.1432 46 66.0001 46V54Z"
    fill="#79B669" mask="url(#path-3-inside-1_1_46)" />
  <ellipse cx="53.0627" cy="40.0906" rx="2.32115" ry="2.90143" transform="rotate(4.94199 53.0627 40.0906)"
    fill="#79B669" />
  <ellipse cx="78.0627" cy="40.0906" rx="2.32115" ry="2.90143" transform="rotate(4.94199 78.0627 40.0906)"
    fill="#79B669" />
  <line x1="1" y1="-1" x2="7.90793" y2="-1" transform="matrix(-0.753444 -0.657513 0.541775 -0.840523 33.5 16.8572)"
    stroke="#79B669" stroke-width="2" stroke-linecap="round" />
  <line x1="1" y1="-1" x2="7.40716" y2="-1" transform="matrix(-0.991951 -0.126621 0.0938662 -0.995585 29.8396 20.3179)"
    stroke="#79B669" stroke-width="2" stroke-linecap="round" />
</svg>