<svg width="20" height="20" viewBox="0 0 20 20" fill="transparent" xmlns="http://www.w3.org/2000/svg">
<g clip-path="url(#clip0_2751_7475)">
<path d="M14.9487 14.9507C13.5242 16.0365 11.7896 16.6381 9.9987 16.6673C4.16536 16.6673 0.832031 10.0007 0.832031 10.0007C1.86861 8.06892 3.30631 6.38118 5.0487 5.05067M8.2487 3.53401C8.82231 3.39974 9.40959 3.33262 9.9987 3.33401C15.832 3.33401 19.1654 10.0007 19.1654 10.0007C18.6595 10.947 18.0562 11.838 17.3654 12.659M11.7654 11.7673C11.5365 12.013 11.2605 12.21 10.9538 12.3466C10.6472 12.4832 10.3161 12.5567 9.98044 12.5626C9.64476 12.5686 9.31133 12.5068 9.00004 12.3811C8.68875 12.2553 8.40597 12.0682 8.16857 11.8308C7.93117 11.5934 7.74403 11.3106 7.61829 10.9993C7.49255 10.688 7.4308 10.3546 7.43673 10.0189C7.44265 9.68325 7.51612 9.35221 7.65276 9.04554C7.7894 8.73888 7.98641 8.46288 8.23203 8.23401" stroke="#D3D3D3" stroke-width="1.5" stroke-linecap="round" stroke-linejoin="round"/>
<path d="M0.832031 0.833984L19.1654 19.1673" stroke="#D3D3D3" stroke-width="1.5" stroke-linecap="round" stroke-linejoin="round"/>
</g>
<defs>
<clipPath id="clip0_2751_7475">
<rect width="20" height="20" fill="white"/>
</clipPath>
</defs>
</svg>
