<svg width="20" height="21" viewBox="0 0 20 21" fill="none" xmlns="http://www.w3.org/2000/svg">
  <g clip-path="url(#clip0_101_2219)">
    <path
      d="M19.3925 8.36274C18.1 6.25774 15.16 2.72607 10 2.72607C4.84004 2.72607 1.90004 6.25774 0.607543 8.36274C0.207983 9.009 -0.00366211 9.75378 -0.00366211 10.5136C-0.00366211 11.2734 0.207983 12.0182 0.607543 12.6644C1.90004 14.7694 4.84004 18.3011 10 18.3011C15.16 18.3011 18.1 14.7694 19.3925 12.6644C19.7921 12.0182 20.0037 11.2734 20.0037 10.5136C20.0037 9.75378 19.7921 9.009 19.3925 8.36274ZM17.9717 11.7919C16.8617 13.5969 14.3492 16.6344 10 16.6344C5.65088 16.6344 3.13838 13.5969 2.02838 11.7919C1.79099 11.4078 1.66525 10.9651 1.66525 10.5136C1.66525 10.062 1.79099 9.61937 2.02838 9.23524C3.13838 7.43024 5.65088 4.39274 10 4.39274C14.3492 4.39274 16.8617 7.42691 17.9717 9.23524C18.2091 9.61937 18.3348 10.062 18.3348 10.5136C18.3348 10.9651 18.2091 11.4078 17.9717 11.7919Z"
      fill="#494C4F" />
    <path
      d="M10 6.34692C9.17595 6.34692 8.37037 6.59129 7.68517 7.04913C6.99996 7.50697 6.46591 8.15772 6.15054 8.91908C5.83518 9.68044 5.75267 10.5182 5.91344 11.3265C6.07421 12.1347 6.47105 12.8772 7.05376 13.4599C7.63648 14.0426 8.37891 14.4394 9.18717 14.6002C9.99542 14.761 10.8332 14.6785 11.5946 14.3631C12.3559 14.0477 13.0067 13.5137 13.4645 12.8285C13.9223 12.1433 14.1667 11.3377 14.1667 10.5136C14.1654 9.40893 13.726 8.34989 12.9449 7.56877C12.1637 6.78766 11.1047 6.34825 10 6.34692ZM10 13.0136C9.50559 13.0136 9.02224 12.867 8.61112 12.5923C8.19999 12.3176 7.87956 11.9271 7.69034 11.4703C7.50112 11.0135 7.45162 10.5108 7.54808 10.0259C7.64454 9.54091 7.88264 9.09545 8.23228 8.74582C8.58191 8.39619 9.02736 8.15809 9.51232 8.06163C9.99727 7.96516 10.4999 8.01467 10.9568 8.20389C11.4136 8.39311 11.804 8.71354 12.0787 9.12467C12.3534 9.53579 12.5 10.0191 12.5 10.5136C12.5 11.1766 12.2367 11.8125 11.7678 12.2814C11.299 12.7502 10.6631 13.0136 10 13.0136Z"
      fill="#494C4F" />
  </g>
  <defs>
    <clipPath id="clip0_101_2219">
      <rect width="20" height="20" fill="white" transform="translate(0 0.513672)" />
    </clipPath>
  </defs>
</svg>