<svg width="279" height="296" viewBox="0 0 279 296" fill="none" xmlns="http://www.w3.org/2000/svg">
  <path
    d="M139.5 248C198.653 248 246.605 220.314 246.605 186.162C246.605 152.01 198.653 124.324 139.5 124.324C80.3476 124.324 32.395 152.01 32.395 186.162C32.395 220.314 80.3476 248 139.5 248Z"
    fill="#F0F0F0" />
  <path
    d="M117.337 233.02C137.735 233.02 154.271 223.474 154.271 211.698C154.271 199.922 137.735 190.376 117.337 190.376C96.9391 190.376 80.4033 199.922 80.4033 211.698C80.4033 223.474 96.9391 233.02 117.337 233.02Z"
    fill="#E0E0E0" />
  <path
    d="M222.369 185.021L218.036 182.52C218.036 182.52 216.977 173.246 217.682 166.063C218.673 155.97 225.192 143.823 232.966 146.678C240.74 149.533 229.402 159.807 226.879 168.368C224.356 176.928 222.369 185.021 222.369 185.021Z"
    fill="#039D71" />
  <path opacity="0.15"
    d="M222.369 185.021L218.036 182.52C218.036 182.52 216.977 173.246 217.682 166.063C218.673 155.97 225.192 143.823 232.966 146.678C240.74 149.533 229.402 159.807 226.879 168.368C224.356 176.928 222.369 185.021 222.369 185.021Z"
    fill="black" />
  <path
    d="M220.091 183.971C220.16 183.967 220.225 183.936 220.272 183.885C220.319 183.834 220.344 183.767 220.341 183.698C219.582 161.271 230.748 149.987 230.857 149.878C230.906 149.829 230.934 149.762 230.934 149.692C230.934 149.622 230.906 149.555 230.857 149.506C230.833 149.481 230.804 149.462 230.772 149.449C230.741 149.435 230.707 149.429 230.673 149.429C230.638 149.429 230.605 149.435 230.573 149.449C230.541 149.462 230.513 149.481 230.489 149.506C230.37 149.615 219.046 161.062 219.814 183.716C219.815 183.751 219.823 183.785 219.838 183.817C219.853 183.849 219.873 183.878 219.899 183.902C219.925 183.925 219.955 183.944 219.988 183.955C220.021 183.967 220.056 183.972 220.091 183.971Z"
    fill="white" />
  <path
    d="M225.092 186.58L222.01 184.802C222.01 184.802 221.483 178.438 224.606 170.709C227.334 163.981 234.062 158.393 237.454 159.566C240.845 160.739 240.759 163.144 239.104 165.667C237.449 168.19 227.397 174.196 225.092 186.58Z"
    fill="#039D71" />
  <path
    d="M223.465 185.907C223.534 185.906 223.601 185.878 223.65 185.829C223.699 185.78 223.727 185.713 223.728 185.644C223.665 171.459 236.981 161.876 237.117 161.78C237.145 161.761 237.17 161.736 237.188 161.707C237.206 161.678 237.219 161.645 237.224 161.611C237.23 161.577 237.228 161.542 237.22 161.509C237.212 161.476 237.197 161.444 237.176 161.417C237.136 161.361 237.075 161.322 237.007 161.311C236.939 161.299 236.869 161.314 236.812 161.353C236.676 161.449 223.142 171.196 223.201 185.644C223.201 185.714 223.229 185.781 223.278 185.83C223.328 185.88 223.395 185.907 223.465 185.907Z"
    fill="white" />
  <path
    d="M62.0593 179.452L66.06 176.751C66.06 176.751 67.8194 166.295 66.1828 157.07C63.8824 144.132 54.9399 139.831 51.7575 141.195C48.5752 142.559 47.8932 146.409 53.8352 153.793C57.3585 158.134 61.9366 167.404 62.0593 179.452Z"
    fill="#039D71" />
  <g opacity="0.15">
    <path
      d="M62.0593 179.452L66.06 176.751C66.06 176.751 67.8194 166.295 66.1828 157.07C63.8824 144.132 54.9399 139.831 51.7575 141.195C48.5752 142.559 47.8932 146.409 53.8352 153.793C57.3585 158.134 61.9366 167.404 62.0593 179.452Z"
      fill="black" />
  </g>
  <path
    d="M63.4323 174.269H63.3914C63.3505 174.266 63.3107 174.255 63.2744 174.236C63.2382 174.217 63.2063 174.191 63.181 174.158C63.1557 174.126 63.1375 174.089 63.1275 174.049C63.1175 174.01 63.1161 173.968 63.1232 173.928C64.5689 161.749 59.4271 148.528 53.8307 143.268C53.7768 143.214 53.7466 143.14 53.7466 143.063C53.7466 142.987 53.7768 142.913 53.8307 142.859C53.8573 142.832 53.8891 142.81 53.9243 142.795C53.9594 142.781 53.9971 142.773 54.0352 142.773C54.0733 142.773 54.1111 142.781 54.1462 142.795C54.1813 142.81 54.2131 142.832 54.2398 142.859C59.9408 148.214 65.1781 161.653 63.7142 174.01C63.7056 174.079 63.6725 174.144 63.6209 174.191C63.5693 174.239 63.5024 174.266 63.4323 174.269Z"
    fill="white" />
  <path
    d="M51.5848 186.517C50.9483 186.898 49.0934 185.521 48.5797 185.189C47.6993 184.614 46.9821 183.822 46.4975 182.889C45.9539 181.83 45.7522 180.63 45.9201 179.452C46.0133 178.837 46.1484 178.229 46.3248 177.633C46.4839 177.038 46.643 176.442 46.7794 175.842C46.981 175.258 47.0584 174.639 47.0067 174.023C46.8294 172.81 45.7337 171.978 44.7336 171.264C43.6334 170.468 42.4604 169.418 42.4604 167.954C42.5165 166.804 42.9567 165.706 43.7107 164.836C44.3926 163.926 45.2109 163.135 45.8247 162.185C46.3046 161.527 46.5495 160.726 46.5202 159.912C46.4412 159.41 46.2619 158.929 45.9929 158.498C45.4564 157.552 44.7609 156.68 44.3835 155.675C44.0062 154.67 44.0335 153.379 44.8381 152.629C45.4792 152.015 46.4566 151.915 47.3431 151.956C48.1785 152.039 48.9855 152.305 49.7072 152.733C52.0576 153.984 53.4396 156.711 55.9264 157.662C56.8857 158.025 57.9313 158.089 58.927 158.334C59.9226 158.58 60.95 159.066 61.4274 159.971C62.3685 161.767 60.7273 164.031 61.4001 165.936C62.0002 167.627 63.6732 168.245 64.6189 169.759C65.0026 170.431 65.1619 171.209 65.0735 171.978C65.0201 173.276 64.7289 174.553 64.2142 175.747C63.6223 176.984 62.9543 178.183 62.2139 179.338C62.2139 179.338 51.6802 186.457 51.5848 186.517Z"
    fill="#039D71" />
  <path
    d="M57.7313 182.748C57.693 182.747 57.6553 182.739 57.6203 182.724C57.5852 182.709 57.5534 182.687 57.5268 182.659C57.5002 182.632 57.4793 182.599 57.4652 182.564C57.4512 182.528 57.4442 182.49 57.4448 182.452C57.6994 170.941 52.0348 158.357 48.025 154.72C47.968 154.669 47.9337 154.597 47.9294 154.52C47.9251 154.443 47.9513 154.368 48.0023 154.311C48.029 154.284 48.0608 154.262 48.0959 154.247C48.131 154.232 48.1688 154.225 48.2069 154.225C48.245 154.225 48.2827 154.232 48.3178 154.247C48.353 154.262 48.3848 154.284 48.4115 154.311C52.5031 157.993 58.2814 170.796 58.0222 182.466C58.0216 182.503 58.0136 182.54 57.9987 182.575C57.9837 182.61 57.9621 182.641 57.9351 182.667C57.9081 182.693 57.8762 182.714 57.8412 182.728C57.8062 182.741 57.7689 182.748 57.7313 182.748Z"
    fill="white" />
  <path
    d="M55.6082 168.723C55.5813 168.729 55.5532 168.729 55.5263 168.723C51.8075 167.65 47.1976 167.541 47.1521 167.536C47.1141 167.535 47.0766 167.527 47.0418 167.512C47.007 167.497 46.9755 167.475 46.9493 167.447C46.923 167.42 46.9025 167.387 46.889 167.352C46.8754 167.316 46.8691 167.278 46.8703 167.24C46.8696 167.202 46.8768 167.164 46.8916 167.129C46.9064 167.093 46.9283 167.061 46.9561 167.035C46.9839 167.008 47.0169 166.988 47.053 166.975C47.0891 166.962 47.1275 166.956 47.1658 166.959C47.2112 166.959 51.8939 167.072 55.6854 168.163C55.7587 168.185 55.8203 168.236 55.8569 168.303C55.8935 168.37 55.9021 168.449 55.8809 168.523C55.8632 168.581 55.8271 168.632 55.7779 168.668C55.7287 168.704 55.6691 168.723 55.6082 168.723Z"
    fill="white" />
  <path
    d="M162.759 171.537L161.036 170.541C160.749 170.355 160.51 170.103 160.338 169.807C160.167 169.511 160.068 169.178 160.049 168.836V97.2238C160.068 96.8826 160.166 96.5505 160.337 96.2544C160.508 95.9583 160.745 95.7064 161.031 95.5189L208.926 67.8687C209.231 67.7141 209.568 67.6335 209.91 67.6335C210.252 67.6335 210.589 67.7141 210.894 67.8687L212.617 68.8643C212.904 69.0507 213.143 69.3023 213.315 69.5985C213.486 69.8948 213.585 70.2274 213.604 70.5691V142.182C213.585 142.523 213.486 142.855 213.316 143.151C213.145 143.447 212.908 143.699 212.622 143.886L164.727 171.541C164.422 171.696 164.085 171.777 163.742 171.776C163.4 171.775 163.063 171.693 162.759 171.537Z"
    fill="#455A64" />
  <path
    d="M213.604 70.41C213.536 69.9008 213.122 69.7144 212.626 70.0009L164.727 97.6557C164.438 97.8374 164.198 98.0891 164.032 98.3876L160.335 96.2554C160.501 95.9547 160.74 95.7012 161.031 95.5189L208.926 67.8687C209.231 67.7141 209.568 67.6335 209.91 67.6335C210.252 67.6335 210.589 67.7141 210.894 67.8687L212.617 68.8643C212.883 69.0356 213.109 69.2625 213.28 69.5293C213.45 69.796 213.561 70.0965 213.604 70.41Z"
    fill="#455A64" />
  <path
    d="M164.559 171.619C164.268 171.736 163.955 171.79 163.641 171.777C163.328 171.764 163.021 171.683 162.741 171.541L161.013 170.541C160.727 170.354 160.49 170.102 160.319 169.806C160.148 169.509 160.05 169.177 160.031 168.836V97.2237C160.043 96.8819 160.141 96.5486 160.317 96.2554L164.014 98.3876C163.834 98.6812 163.734 99.0164 163.723 99.3605V170.973C163.741 171.537 164.095 171.796 164.559 171.619Z"
    fill="#263238" />
  <path
    d="M163.741 99.3695V170.973C163.741 171.6 164.195 171.855 164.727 171.541L212.622 143.886C212.908 143.699 213.145 143.447 213.316 143.151C213.487 142.855 213.585 142.523 213.604 142.182V70.569C213.604 69.9417 213.149 69.6871 212.622 70.0008L164.727 97.6556C164.439 97.8429 164.199 98.0959 164.028 98.3938C163.856 98.6918 163.758 99.0262 163.741 99.3695Z"
    fill="#37474F" />
  <path
    d="M152.557 126.647C151.939 126.279 149.07 124.647 148.92 124.56C148.803 124.491 148.703 124.396 148.628 124.282C148.553 124.169 148.504 124.04 148.485 123.905C148.466 123.77 148.478 123.633 148.52 123.503C148.561 123.373 148.631 123.255 148.724 123.156L160.049 111.008L163.741 113.127L152.421 125.283C152.332 125.378 152.264 125.491 152.222 125.614C152.181 125.737 152.166 125.867 152.179 125.996C152.191 126.125 152.232 126.25 152.297 126.363C152.362 126.475 152.451 126.572 152.557 126.647Z"
    fill="#455A64" />
  <path
    d="M163.741 113.14L152.42 125.283C152.295 125.417 152.213 125.587 152.185 125.768C152.158 125.95 152.186 126.136 152.266 126.302C152.346 126.467 152.475 126.604 152.635 126.695C152.795 126.786 152.978 126.826 153.162 126.811L163.741 125.938V113.14Z"
    fill="#37474F" />
  <path
    d="M188.672 91.2774C194.255 88.0541 198.779 90.6682 198.779 97.1147C198.779 103.561 194.255 111.395 188.672 114.618C183.089 117.841 178.566 115.227 178.566 108.785C178.566 102.343 183.089 94.5007 188.672 91.2774Z"
    fill="#039D71" />
  <path
    d="M188.6 96.3509C190.418 95.3052 191.877 96.1508 191.877 98.2421C191.815 99.3789 191.486 100.485 190.917 101.471C190.347 102.457 189.553 103.294 188.6 103.916C186.781 104.961 185.317 104.116 185.317 102.025C185.38 100.887 185.709 99.781 186.28 98.7951C186.85 97.8093 187.645 96.9719 188.6 96.3509Z"
    fill="white" />
  <path
    d="M195.064 107.498C195.064 104.066 192.65 102.67 189.677 104.389L187.818 105.462C184.844 107.18 182.43 111.372 182.43 114.795V115.736C182.992 115.916 183.578 116.006 184.167 116.004C185.762 115.95 187.315 115.48 188.672 114.641C191.257 113.049 193.443 110.887 195.064 108.321V107.498Z"
    fill="white" />
  <path
    d="M182.271 146.528L195.073 139.136C195.619 138.822 196.06 139.077 196.06 139.704V143.827C196.041 144.169 195.942 144.502 195.771 144.798C195.6 145.094 195.361 145.346 195.073 145.532L182.271 152.925C181.726 153.238 181.285 152.984 181.285 152.356V148.233C181.303 147.891 181.402 147.558 181.574 147.262C181.745 146.966 181.984 146.714 182.271 146.528Z"
    fill="#039D71" />
  <path
    d="M176.002 137.317L201.329 122.687C201.979 122.31 202.511 122.615 202.511 123.369V124.901C202.489 125.311 202.37 125.71 202.165 126.066C201.959 126.421 201.673 126.723 201.329 126.947L175.988 141.577C175.338 141.954 174.811 141.65 174.811 140.895V139.377C174.832 138.963 174.95 138.561 175.158 138.203C175.365 137.845 175.654 137.541 176.002 137.317Z"
    fill="#FAFAFA" />
  <path
    d="M178.966 126.729C179.312 126.529 179.58 126.497 179.771 126.638C179.962 126.779 180.057 127.093 180.057 127.575C180.067 128.014 179.969 128.45 179.771 128.843C179.592 129.198 179.312 129.493 178.966 129.689L178.284 130.084V131.553C178.283 131.603 178.271 131.653 178.248 131.698C178.232 131.739 178.203 131.774 178.166 131.798L177.821 131.998C177.809 132.007 177.794 132.012 177.78 132.012C177.765 132.012 177.75 132.007 177.739 131.998C177.714 131.967 177.703 131.928 177.707 131.889V127.638C177.706 127.588 177.717 127.538 177.739 127.493C177.756 127.452 177.784 127.418 177.821 127.393L178.966 126.729ZM178.284 129.261L178.943 128.879C179.103 128.79 179.237 128.661 179.334 128.507C179.438 128.324 179.488 128.116 179.48 127.906C179.48 127.661 179.43 127.52 179.334 127.479C179.267 127.463 179.197 127.462 179.129 127.477C179.061 127.492 178.998 127.522 178.943 127.565L178.284 127.947V129.261Z"
    fill="#FAFAFA" />
  <path
    d="M181.962 124.997C182.008 124.969 182.044 124.969 182.067 124.997C182.096 125.038 182.116 125.084 182.126 125.133L183.176 128.688C183.176 128.688 183.176 128.716 183.176 128.729C183.175 128.78 183.163 128.83 183.14 128.875C183.124 128.916 183.095 128.951 183.058 128.975L182.749 129.152C182.694 129.184 182.653 129.188 182.63 129.152C182.608 129.129 182.593 129.101 182.585 129.07L182.399 128.447L181.035 129.229L180.853 130.066C180.84 130.111 180.823 130.155 180.803 130.198C180.78 130.253 180.738 130.298 180.685 130.325L180.376 130.502C180.364 130.512 180.35 130.517 180.335 130.517C180.32 130.517 180.305 130.512 180.294 130.502C180.27 130.473 180.258 130.435 180.262 130.398C180.259 130.381 180.259 130.364 180.262 130.348L181.308 125.583C181.32 125.513 181.34 125.445 181.367 125.379C181.389 125.331 181.425 125.291 181.471 125.265L181.962 124.997ZM182.199 127.752L181.744 126.147L181.289 128.293L182.199 127.752Z"
    fill="#FAFAFA" />
  <path
    d="M184.767 123.31C184.919 123.214 185.093 123.156 185.272 123.142C185.399 123.13 185.526 123.159 185.636 123.224C185.735 123.288 185.813 123.382 185.858 123.492C185.908 123.604 185.936 123.724 185.94 123.847C185.943 123.897 185.932 123.947 185.908 123.992C185.892 124.033 185.864 124.068 185.826 124.092L185.526 124.265C185.476 124.292 185.44 124.297 185.417 124.265C185.389 124.246 185.366 124.221 185.349 124.192C185.331 124.151 185.305 124.114 185.272 124.084C185.239 124.053 185.2 124.03 185.158 124.015C185.02 123.995 184.879 124.031 184.767 124.115C184.693 124.162 184.624 124.215 184.558 124.274C184.491 124.336 184.431 124.406 184.381 124.483C184.332 124.557 184.293 124.636 184.263 124.719C184.236 124.798 184.222 124.881 184.222 124.965C184.216 125.041 184.23 125.118 184.263 125.188C184.277 125.212 184.296 125.233 184.32 125.248C184.344 125.263 184.371 125.272 184.399 125.274C184.483 125.289 184.569 125.289 184.654 125.274L185.049 125.188C185.196 125.144 185.35 125.126 185.504 125.133C185.613 125.133 185.72 125.168 185.808 125.233C185.892 125.303 185.952 125.397 185.981 125.501C186.026 125.649 186.046 125.802 186.04 125.956C186.04 126.159 186.011 126.361 185.954 126.556C185.898 126.757 185.817 126.949 185.713 127.129C185.603 127.313 185.472 127.484 185.322 127.638C185.169 127.797 184.995 127.933 184.804 128.043C184.664 128.128 184.51 128.188 184.349 128.22C184.218 128.245 184.083 128.234 183.958 128.188C183.844 128.135 183.75 128.048 183.69 127.938C183.615 127.798 183.575 127.642 183.572 127.484C183.571 127.432 183.582 127.381 183.603 127.333C183.624 127.295 183.653 127.262 183.69 127.238L183.99 127.065C184.035 127.038 184.072 127.029 184.099 127.043C184.126 127.056 184.144 127.079 184.163 127.12C184.181 127.167 184.206 127.211 184.235 127.252C184.264 127.291 184.303 127.321 184.349 127.338C184.409 127.352 184.471 127.352 184.531 127.338C184.627 127.315 184.719 127.277 184.804 127.224C184.892 127.174 184.975 127.116 185.054 127.052C185.207 126.931 185.328 126.775 185.408 126.597C185.445 126.506 185.463 126.409 185.463 126.311C185.467 126.275 185.464 126.239 185.454 126.204C185.444 126.17 185.427 126.138 185.404 126.111C185.379 126.089 185.35 126.073 185.319 126.063C185.287 126.054 185.254 126.051 185.222 126.056C185.119 126.06 185.016 126.077 184.917 126.106C184.799 126.133 184.663 126.165 184.504 126.192C184.382 126.223 184.256 126.232 184.131 126.22C184.032 126.213 183.939 126.173 183.867 126.106C183.788 126.029 183.733 125.931 183.708 125.824C183.671 125.666 183.655 125.504 183.658 125.342C183.658 125.142 183.687 124.943 183.744 124.751C183.799 124.554 183.878 124.364 183.981 124.187C184.079 124.012 184.198 123.848 184.335 123.701C184.46 123.551 184.605 123.419 184.767 123.31Z"
    fill="#FAFAFA" />
  <path
    d="M187.754 121.592C187.905 121.493 188.079 121.433 188.259 121.419C188.385 121.408 188.512 121.437 188.622 121.501C188.719 121.567 188.795 121.66 188.841 121.769C188.89 121.881 188.918 122.001 188.922 122.124C188.928 122.174 188.917 122.225 188.891 122.269C188.874 122.31 188.846 122.345 188.809 122.369L188.509 122.542C188.463 122.569 188.427 122.578 188.4 122.542C188.371 122.524 188.348 122.497 188.336 122.465C188.294 122.385 188.225 122.323 188.14 122.292C188.073 122.282 188.003 122.286 187.937 122.303C187.871 122.32 187.808 122.35 187.754 122.392C187.678 122.438 187.606 122.492 187.54 122.551C187.474 122.613 187.416 122.683 187.368 122.76C187.317 122.833 187.278 122.913 187.249 122.997C187.221 123.075 187.206 123.158 187.204 123.242C187.198 123.319 187.213 123.395 187.245 123.465C187.259 123.489 187.278 123.51 187.302 123.525C187.326 123.54 187.353 123.549 187.381 123.551C187.465 123.566 187.552 123.566 187.636 123.551L188.031 123.465C188.179 123.424 188.332 123.405 188.486 123.41C188.596 123.409 188.703 123.444 188.79 123.51C188.874 123.581 188.935 123.674 188.968 123.778C189.008 123.927 189.026 124.08 189.022 124.233C189.022 124.436 188.993 124.638 188.936 124.833C188.88 125.034 188.799 125.226 188.695 125.406C188.585 125.592 188.454 125.765 188.304 125.92C188.151 126.074 187.978 126.209 187.79 126.32C187.65 126.405 187.496 126.465 187.336 126.497C187.206 126.522 187.073 126.511 186.949 126.465C186.833 126.414 186.738 126.326 186.676 126.215C186.602 126.075 186.563 125.919 186.563 125.761C186.557 125.71 186.569 125.659 186.595 125.615C186.611 125.574 186.639 125.539 186.676 125.515L186.977 125.342C187.022 125.315 187.063 125.306 187.086 125.32C187.101 125.327 187.115 125.338 187.126 125.351C187.137 125.364 187.145 125.38 187.149 125.397C187.17 125.443 187.194 125.487 187.222 125.529C187.252 125.569 187.293 125.599 187.34 125.615C187.4 125.629 187.462 125.629 187.522 125.615C187.619 125.592 187.711 125.554 187.795 125.502C187.881 125.45 187.963 125.392 188.04 125.329C188.12 125.266 188.191 125.193 188.249 125.111C188.308 125.032 188.357 124.946 188.395 124.856C188.431 124.765 188.45 124.668 188.45 124.57C188.454 124.534 188.451 124.498 188.441 124.463C188.43 124.429 188.413 124.397 188.39 124.369C188.366 124.348 188.337 124.332 188.305 124.322C188.274 124.313 188.241 124.31 188.209 124.315C188.107 124.321 188.007 124.338 187.909 124.365C187.79 124.392 187.649 124.424 187.495 124.451C187.371 124.482 187.244 124.491 187.117 124.479C187.019 124.473 186.925 124.433 186.854 124.365C186.777 124.288 186.723 124.19 186.699 124.083C186.659 123.927 186.64 123.767 186.645 123.606C186.646 123.404 186.675 123.204 186.731 123.01C186.787 122.814 186.867 122.624 186.967 122.446C187.066 122.27 187.187 122.106 187.327 121.96C187.449 121.816 187.593 121.692 187.754 121.592Z"
    fill="#FAFAFA" />
  <path
    d="M191.068 122.16L190.7 124.338C190.689 124.403 190.671 124.467 190.645 124.528C190.628 124.577 190.594 124.619 190.55 124.647L190.204 124.847C190.159 124.874 190.127 124.874 190.104 124.847C190.074 124.809 190.056 124.763 190.054 124.715L189.509 120.873C189.509 120.873 189.509 120.837 189.509 120.823C189.51 120.773 189.523 120.723 189.545 120.678C189.562 120.637 189.591 120.603 189.627 120.578L189.941 120.396C189.967 120.385 189.996 120.385 190.023 120.396C190.05 120.396 190.068 120.432 190.077 120.505L190.436 123.092L190.75 121.151C190.758 121.102 190.772 121.055 190.791 121.01C190.809 120.952 190.848 120.903 190.9 120.873L191.25 120.669C191.3 120.641 191.336 120.646 191.359 120.669C191.379 120.698 191.393 120.73 191.4 120.764L191.718 122.342L192.077 119.341C192.082 119.282 192.099 119.225 192.127 119.173C192.149 119.139 192.176 119.11 192.209 119.087L192.523 118.905C192.535 118.896 192.549 118.891 192.564 118.891C192.579 118.891 192.593 118.896 192.605 118.905C192.618 118.92 192.628 118.937 192.634 118.956C192.64 118.974 192.643 118.994 192.641 119.014C192.643 119.032 192.643 119.05 192.641 119.068L192.096 123.537C192.086 123.603 192.07 123.667 192.046 123.728C192.025 123.777 191.99 123.818 191.946 123.847L191.596 124.047C191.555 124.069 191.523 124.069 191.5 124.047C191.477 124.005 191.459 123.961 191.445 123.915L191.068 122.16Z"
    fill="#FAFAFA" />
  <path
    d="M193.196 120.232C193.206 119.98 193.236 119.729 193.287 119.482C193.339 119.241 193.418 119.006 193.523 118.782C193.623 118.565 193.752 118.361 193.905 118.177C194.061 117.995 194.247 117.841 194.455 117.723C194.615 117.614 194.803 117.553 194.996 117.545C195.141 117.547 195.279 117.604 195.383 117.705C195.493 117.828 195.572 117.976 195.614 118.136C195.673 118.345 195.705 118.561 195.71 118.777C195.71 118.859 195.71 118.95 195.71 119.05C195.71 119.15 195.71 119.255 195.71 119.364C195.71 119.473 195.71 119.578 195.71 119.678C195.71 119.778 195.71 119.873 195.71 119.959C195.7 120.21 195.67 120.459 195.619 120.705C195.567 120.946 195.489 121.181 195.387 121.405C195.284 121.622 195.154 121.825 195.001 122.01C194.845 122.191 194.661 122.344 194.455 122.464C194.291 122.572 194.101 122.634 193.905 122.642C193.834 122.643 193.764 122.63 193.698 122.604C193.633 122.577 193.573 122.537 193.523 122.487C193.405 122.36 193.323 122.203 193.287 122.033C193.233 121.823 193.202 121.608 193.196 121.392C193.196 121.31 193.196 121.219 193.196 121.119C193.196 121.019 193.196 120.914 193.196 120.805C193.196 120.696 193.196 120.596 193.196 120.491C193.196 120.387 193.191 120.314 193.196 120.232ZM195.133 119.146C195.143 119.034 195.13 118.922 195.096 118.816C195.061 118.71 195.006 118.612 194.933 118.527C194.814 118.423 194.651 118.427 194.455 118.527C194.243 118.652 194.075 118.84 193.973 119.064C193.844 119.329 193.776 119.619 193.773 119.914C193.773 120.082 193.773 120.269 193.773 120.473C193.773 120.678 193.773 120.86 193.773 121.023C193.763 121.135 193.776 121.247 193.81 121.353C193.844 121.459 193.9 121.557 193.973 121.642C194.091 121.742 194.255 121.733 194.455 121.619C194.664 121.493 194.83 121.308 194.933 121.087C195.062 120.824 195.13 120.535 195.133 120.241C195.133 120.069 195.133 119.882 195.133 119.678C195.133 119.473 195.137 119.309 195.133 119.146Z"
    fill="#FAFAFA" />
  <path
    d="M197.692 115.909C198.051 115.704 198.319 115.672 198.506 115.822C198.616 115.944 198.698 116.089 198.746 116.246C198.794 116.403 198.807 116.569 198.783 116.732C198.787 117.041 198.739 117.348 198.642 117.641C198.55 117.914 198.406 118.167 198.219 118.387L198.81 119.673C198.812 119.694 198.812 119.716 198.81 119.737C198.811 119.778 198.801 119.818 198.783 119.855C198.771 119.888 198.748 119.917 198.72 119.937L198.356 120.146C198.297 120.178 198.256 120.182 198.229 120.146C198.204 120.122 198.185 120.094 198.169 120.064L197.61 118.85L197.042 119.178V120.714C197.042 120.765 197.031 120.814 197.01 120.86C196.991 120.899 196.963 120.934 196.928 120.96L196.583 121.16C196.571 121.169 196.557 121.175 196.542 121.175C196.527 121.175 196.512 121.169 196.501 121.16C196.488 121.146 196.478 121.129 196.472 121.111C196.465 121.093 196.463 121.074 196.465 121.055V116.804C196.466 116.754 196.478 116.704 196.501 116.659C196.517 116.618 196.546 116.583 196.583 116.559L197.692 115.909ZM197.051 118.355L197.692 118.009C197.849 117.922 197.983 117.799 198.083 117.65C198.188 117.475 198.239 117.272 198.229 117.068C198.229 116.823 198.179 116.686 198.083 116.659C197.945 116.64 197.804 116.676 197.692 116.759L197.074 117.114L197.051 118.355Z"
    fill="#FAFAFA" />
  <path
    d="M200.738 114.159C200.903 114.051 201.092 113.985 201.288 113.968C201.43 113.962 201.569 114.013 201.675 114.109C201.795 114.235 201.878 114.392 201.916 114.563C201.977 114.789 202.01 115.021 202.016 115.254C202.016 115.572 202.016 115.9 202.016 116.232C202.006 116.502 201.973 116.772 201.916 117.036C201.864 117.282 201.784 117.522 201.679 117.75C201.578 117.96 201.449 118.155 201.297 118.332C201.145 118.513 200.964 118.667 200.761 118.787L199.683 119.373C199.672 119.383 199.657 119.388 199.642 119.388C199.627 119.388 199.613 119.383 199.601 119.373C199.588 119.359 199.578 119.343 199.572 119.325C199.565 119.307 199.563 119.288 199.565 119.269V115.018C199.566 114.967 199.579 114.918 199.601 114.872C199.618 114.831 199.646 114.796 199.683 114.772L200.738 114.159ZM201.438 115.572C201.436 115.449 201.418 115.327 201.384 115.209C201.362 115.119 201.317 115.037 201.252 114.972C201.223 114.944 201.189 114.921 201.152 114.907C201.114 114.892 201.074 114.885 201.034 114.886C200.92 114.894 200.81 114.931 200.715 114.995L200.142 115.322V118.287L200.738 117.946C200.853 117.879 200.956 117.792 201.043 117.691C201.127 117.591 201.199 117.481 201.256 117.364C201.313 117.238 201.356 117.107 201.384 116.973C201.415 116.832 201.434 116.689 201.438 116.545C201.452 116.214 201.452 115.891 201.438 115.572Z"
    fill="#FAFAFA" />
  <path
    d="M138.309 48.1743C139.094 48.3489 139.85 48.6335 140.555 49.0199C141.23 49.3828 141.835 49.8631 142.341 50.4383C142.826 50.9916 143.186 51.6428 143.396 52.3477C143.611 53.1022 143.626 53.8994 143.442 54.6617C143.32 55.2662 143.08 55.8408 142.737 56.3529C142.424 56.7909 142.05 57.1827 141.628 57.5168C141.213 57.8389 140.77 58.1234 140.305 58.3669L138.995 59.0625C138.601 59.2682 138.227 59.5102 137.877 59.7854C137.561 60.0279 137.318 60.3538 137.177 60.7264C137.108 60.8967 136.993 61.0445 136.845 61.1538C136.775 61.2081 136.694 61.2458 136.607 61.2639C136.52 61.282 136.431 61.2801 136.345 61.2583L134.417 60.831C134.325 60.8115 134.237 60.7738 134.158 60.7199C134.08 60.6661 134.014 60.5972 133.963 60.5173C133.908 60.4431 133.872 60.357 133.857 60.2662C133.842 60.1754 133.849 60.0823 133.876 59.9945C134.032 59.3975 134.305 58.8378 134.681 58.3488C135.024 57.9161 135.421 57.5295 135.863 57.1986C136.294 56.8835 136.75 56.6051 137.227 56.3666C137.682 56.1347 138.136 55.912 138.532 55.6892C138.9 55.4914 139.246 55.2552 139.564 54.9845C139.843 54.7508 140.036 54.431 140.114 54.0753C140.186 53.7664 140.183 53.4446 140.103 53.1374C140.024 52.8302 139.872 52.5468 139.659 52.3113C139.128 51.7309 138.417 51.3452 137.641 51.2157C136.204 50.8975 134.992 51.3809 134.004 52.6659C133.908 52.8062 133.788 52.9279 133.649 53.0251C133.492 53.1029 133.311 53.1159 133.144 53.0615L131.094 52.6068C130.948 52.5786 130.819 52.4936 130.735 52.3704C130.69 52.3046 130.66 52.23 130.647 52.1515C130.633 52.0731 130.637 51.9927 130.658 51.9158C130.832 51.2841 131.156 50.7039 131.603 50.2246C132.107 49.6688 132.706 49.207 133.372 48.8607C134.1 48.4799 134.884 48.219 135.695 48.0879C136.564 47.9466 137.451 47.9759 138.309 48.1743ZM136.131 62.8041C136.312 62.8464 136.468 62.9576 136.568 63.114C136.667 63.2703 136.701 63.4593 136.663 63.6406L136.172 65.8682C136.156 65.9615 136.119 66.0502 136.066 66.1286C136.013 66.2069 135.944 66.2731 135.863 66.3229C135.787 66.3753 135.701 66.4113 135.61 66.4286C135.519 66.4458 135.426 66.4439 135.336 66.4229L133.135 65.9183C133.042 65.9025 132.953 65.8667 132.874 65.8133C132.796 65.76 132.73 65.6903 132.681 65.6091C132.63 65.5323 132.595 65.4459 132.579 65.3553C132.562 65.2646 132.564 65.1715 132.585 65.0817L133.081 62.8541C133.123 62.6735 133.234 62.5165 133.39 62.4164C133.546 62.3162 133.735 62.2808 133.917 62.3176L136.131 62.8041Z"
    fill="#039D71" />
  <path
    d="M140.737 69.5007C141.284 69.4129 141.841 69.4022 142.391 69.4689C142.917 69.5314 143.428 69.6853 143.901 69.9235C144.351 70.1571 144.747 70.4823 145.065 70.8782C145.35 71.2657 145.55 71.7087 145.654 72.1785C145.757 72.6483 145.761 73.1346 145.665 73.606C145.578 73.9684 145.439 74.3161 145.251 74.638C145.07 74.9511 144.86 75.2464 144.624 75.52C144.392 75.7927 144.169 76.0519 143.964 76.3019C143.764 76.5349 143.586 76.786 143.432 77.0521C143.288 77.2852 143.216 77.5555 143.223 77.8295C143.219 77.9575 143.183 78.0825 143.119 78.1932C143.086 78.2441 143.043 78.2875 142.992 78.3205C142.941 78.3534 142.883 78.3751 142.823 78.3841L141.459 78.6023C141.396 78.6139 141.33 78.6126 141.267 78.5986C141.204 78.5845 141.144 78.558 141.091 78.5205C141.037 78.4867 140.993 78.4407 140.96 78.3861C140.928 78.3316 140.909 78.2701 140.905 78.2068C140.848 77.7837 140.879 77.3535 140.996 76.9429C141.103 76.5795 141.255 76.2312 141.45 75.9064C141.641 75.5947 141.861 75.301 142.105 75.029C142.346 74.7562 142.56 74.5016 142.769 74.2561C142.955 74.0369 143.117 73.7975 143.251 73.5424C143.369 73.3228 143.412 73.0705 143.373 72.824C143.339 72.6072 143.253 72.4017 143.123 72.2252C142.992 72.0487 142.821 71.9064 142.623 71.8102C142.135 71.5741 141.581 71.507 141.05 71.6193C140.569 71.6896 140.122 71.9069 139.77 72.2414C139.417 72.576 139.177 73.0113 139.082 73.4878C139.055 73.6024 139.009 73.7116 138.945 73.8106C138.864 73.8969 138.754 73.9503 138.636 73.9606L137.2 74.1925C137.099 74.2118 136.994 74.1906 136.909 74.1334C136.865 74.1033 136.828 74.0642 136.801 74.0187C136.773 73.9732 136.756 73.9224 136.749 73.8697C136.707 73.4185 136.777 72.9639 136.954 72.5467C137.134 72.0613 137.399 71.6118 137.736 71.2192C138.106 70.7894 138.542 70.421 139.027 70.1281C139.551 69.8104 140.132 69.5974 140.737 69.5007ZM143.082 79.4343C143.145 79.4244 143.209 79.4269 143.271 79.4417C143.332 79.4565 143.39 79.4834 143.442 79.5207C143.495 79.5559 143.541 79.602 143.575 79.6561C143.61 79.7102 143.632 79.7709 143.642 79.8344L143.896 81.3937C143.916 81.5202 143.885 81.6494 143.81 81.7532C143.735 81.857 143.622 81.9272 143.496 81.9484L141.973 82.1984C141.847 82.218 141.718 82.1869 141.614 82.112C141.561 82.0763 141.517 82.03 141.483 81.9759C141.449 81.9219 141.427 81.8614 141.418 81.7983L141.164 80.239C141.152 80.1764 141.154 80.1121 141.169 80.0502C141.184 79.9884 141.212 79.9303 141.25 79.8798C141.286 79.8271 141.332 79.7824 141.386 79.7488C141.44 79.7151 141.501 79.6931 141.564 79.6843L143.082 79.4343Z"
    fill="#039D71" />
  <g opacity="0.2">
    <path
      d="M140.737 69.5007C141.284 69.4129 141.841 69.4022 142.391 69.4689C142.917 69.5314 143.428 69.6853 143.901 69.9235C144.351 70.1571 144.747 70.4823 145.065 70.8782C145.35 71.2657 145.55 71.7087 145.654 72.1785C145.757 72.6483 145.761 73.1346 145.665 73.606C145.578 73.9684 145.439 74.3161 145.251 74.638C145.07 74.9511 144.86 75.2464 144.624 75.52C144.392 75.7927 144.169 76.0519 143.964 76.3019C143.764 76.5349 143.586 76.786 143.432 77.0521C143.288 77.2852 143.216 77.5555 143.223 77.8295C143.219 77.9575 143.183 78.0825 143.119 78.1932C143.086 78.2441 143.043 78.2875 142.992 78.3205C142.941 78.3534 142.883 78.3751 142.823 78.3841L141.459 78.6023C141.396 78.6139 141.33 78.6126 141.267 78.5986C141.204 78.5845 141.144 78.558 141.091 78.5205C141.037 78.4867 140.993 78.4407 140.96 78.3861C140.928 78.3316 140.909 78.2701 140.905 78.2068C140.848 77.7837 140.879 77.3535 140.996 76.9429C141.103 76.5795 141.255 76.2312 141.45 75.9064C141.641 75.5947 141.861 75.301 142.105 75.029C142.346 74.7562 142.56 74.5016 142.769 74.2561C142.955 74.0369 143.117 73.7975 143.251 73.5424C143.369 73.3228 143.412 73.0705 143.373 72.824C143.339 72.6072 143.253 72.4017 143.123 72.2252C142.992 72.0487 142.821 71.9064 142.623 71.8102C142.135 71.5741 141.581 71.507 141.05 71.6193C140.569 71.6896 140.122 71.9069 139.77 72.2414C139.417 72.576 139.177 73.0113 139.082 73.4878C139.055 73.6024 139.009 73.7116 138.945 73.8106C138.864 73.8969 138.754 73.9503 138.636 73.9606L137.2 74.1925C137.099 74.2118 136.994 74.1906 136.909 74.1334C136.865 74.1033 136.828 74.0642 136.801 74.0187C136.773 73.9732 136.756 73.9224 136.749 73.8697C136.707 73.4185 136.777 72.9639 136.954 72.5467C137.134 72.0613 137.399 71.6118 137.736 71.2192C138.106 70.7894 138.542 70.421 139.027 70.1281C139.551 69.8104 140.132 69.5974 140.737 69.5007ZM143.082 79.4343C143.145 79.4244 143.209 79.4269 143.271 79.4417C143.332 79.4565 143.39 79.4834 143.442 79.5207C143.495 79.5559 143.541 79.602 143.575 79.6561C143.61 79.7102 143.632 79.7709 143.642 79.8344L143.896 81.3937C143.916 81.5202 143.885 81.6494 143.81 81.7532C143.735 81.857 143.622 81.9272 143.496 81.9484L141.973 82.1984C141.847 82.218 141.718 82.1869 141.614 82.112C141.561 82.0763 141.517 82.03 141.483 81.9759C141.449 81.9219 141.427 81.8614 141.418 81.7983L141.164 80.239C141.152 80.1764 141.154 80.1121 141.169 80.0502C141.184 79.9884 141.212 79.9303 141.25 79.8798C141.286 79.8271 141.332 79.7824 141.386 79.7488C141.44 79.7151 141.501 79.6931 141.564 79.6843L143.082 79.4343Z"
      fill="black" />
  </g>
  <path
    d="M153.594 71.9512C153.656 71.9943 153.708 72.0496 153.748 72.1137C153.788 72.1778 153.814 72.2494 153.825 72.324C153.84 72.398 153.839 72.4741 153.822 72.5477C153.806 72.6212 153.774 72.6906 153.73 72.7513L152.648 74.2743C152.605 74.3363 152.55 74.3889 152.485 74.4287C152.421 74.4686 152.35 74.495 152.275 74.5062C152.201 74.5207 152.125 74.5197 152.051 74.5032C151.978 74.4868 151.909 74.4553 151.848 74.4107L150.357 73.3515C150.294 73.3089 150.242 73.2537 150.203 73.1895C150.164 73.1252 150.139 73.0533 150.129 72.9787C150.115 72.9047 150.116 72.8285 150.132 72.755C150.149 72.6814 150.18 72.6121 150.225 72.5513L151.32 71.0283C151.409 70.9049 151.543 70.8213 151.692 70.7958C151.842 70.7703 151.996 70.8048 152.121 70.8919L153.594 71.9512ZM159.886 61.6358C160.429 62.0168 160.913 62.4765 161.322 62.9997C161.721 63.4863 162.029 64.0407 162.231 64.6363C162.42 65.2071 162.484 65.8118 162.418 66.4093C162.341 67.0465 162.099 67.6528 161.718 68.1687C161.434 68.5859 161.069 68.9415 160.645 69.2144C160.271 69.4485 159.865 69.6262 159.44 69.7417C159.026 69.85 158.603 69.923 158.176 69.96L156.967 70.0691C156.604 70.098 156.245 70.1604 155.894 70.2555C155.57 70.329 155.274 70.493 155.039 70.7283C154.933 70.8358 154.8 70.9114 154.653 70.9465C154.583 70.9665 154.509 70.9695 154.438 70.9553C154.367 70.9411 154.3 70.91 154.244 70.8647L152.925 69.9281C152.799 69.8381 152.713 69.7029 152.684 69.5508C152.667 69.4771 152.668 69.4004 152.686 69.3269C152.704 69.2535 152.739 69.1853 152.789 69.128C153.097 68.7284 153.482 68.3945 153.921 68.146C154.316 67.9301 154.738 67.7666 155.176 67.6596C155.598 67.5571 156.028 67.4917 156.462 67.4641C156.89 67.4368 157.29 67.405 157.662 67.3686C158.004 67.3385 158.34 67.2714 158.667 67.1686C158.953 67.0734 159.199 66.8864 159.367 66.6366C159.519 66.4258 159.618 66.1813 159.655 65.9241C159.692 65.6668 159.667 65.4044 159.581 65.1591C159.366 64.5532 158.955 64.0364 158.413 63.6907C157.431 62.9906 156.359 62.9678 155.198 63.6225C155.082 63.6968 154.952 63.7492 154.816 63.7771C154.746 63.782 154.675 63.7729 154.608 63.7502C154.541 63.7276 154.479 63.6919 154.425 63.6452L153.025 62.6496C152.975 62.6159 152.931 62.5724 152.898 62.5217C152.864 62.4709 152.841 62.4139 152.83 62.3541C152.819 62.2922 152.821 62.2288 152.836 62.1677C152.851 62.1067 152.878 62.0494 152.916 61.9995C153.247 61.5762 153.676 61.2405 154.166 61.022C154.724 60.7696 155.32 60.6158 155.93 60.5674C156.601 60.5113 157.277 60.5651 157.931 60.7265C158.636 60.8965 159.301 61.2057 159.886 61.6358Z"
    fill="#039D71" />
  <g opacity="0.6">
    <path
      d="M153.594 71.9512C153.656 71.9943 153.708 72.0496 153.748 72.1137C153.788 72.1778 153.814 72.2494 153.825 72.324C153.84 72.398 153.839 72.4741 153.822 72.5477C153.806 72.6212 153.774 72.6906 153.73 72.7513L152.648 74.2743C152.605 74.3363 152.55 74.3889 152.485 74.4287C152.421 74.4686 152.35 74.495 152.275 74.5062C152.201 74.5207 152.125 74.5197 152.051 74.5032C151.978 74.4868 151.909 74.4553 151.848 74.4107L150.357 73.3515C150.294 73.3089 150.242 73.2537 150.203 73.1895C150.164 73.1252 150.139 73.0533 150.129 72.9787C150.115 72.9047 150.116 72.8285 150.132 72.755C150.149 72.6814 150.18 72.6121 150.225 72.5513L151.32 71.0283C151.409 70.9049 151.543 70.8213 151.692 70.7958C151.842 70.7703 151.996 70.8048 152.121 70.8919L153.594 71.9512ZM159.886 61.6358C160.429 62.0168 160.913 62.4765 161.322 62.9997C161.721 63.4863 162.029 64.0407 162.231 64.6363C162.42 65.2071 162.484 65.8118 162.418 66.4093C162.341 67.0465 162.099 67.6528 161.718 68.1687C161.434 68.5859 161.069 68.9415 160.645 69.2144C160.271 69.4485 159.865 69.6262 159.44 69.7417C159.026 69.85 158.603 69.923 158.176 69.96L156.967 70.0691C156.604 70.098 156.245 70.1604 155.894 70.2555C155.57 70.329 155.274 70.493 155.039 70.7283C154.933 70.8358 154.8 70.9114 154.653 70.9465C154.583 70.9665 154.509 70.9695 154.438 70.9553C154.367 70.9411 154.3 70.91 154.244 70.8647L152.925 69.9281C152.799 69.8381 152.713 69.7029 152.684 69.5508C152.667 69.4771 152.668 69.4004 152.686 69.3269C152.704 69.2535 152.739 69.1853 152.789 69.128C153.097 68.7284 153.482 68.3945 153.921 68.146C154.316 67.9301 154.738 67.7666 155.176 67.6596C155.598 67.5571 156.028 67.4917 156.462 67.4641C156.89 67.4368 157.29 67.405 157.662 67.3686C158.004 67.3385 158.34 67.2714 158.667 67.1686C158.953 67.0734 159.199 66.8864 159.367 66.6366C159.519 66.4258 159.618 66.1813 159.655 65.9241C159.692 65.6668 159.667 65.4044 159.581 65.1591C159.366 64.5532 158.955 64.0364 158.413 63.6907C157.431 62.9906 156.359 62.9678 155.198 63.6225C155.082 63.6968 154.952 63.7492 154.816 63.7771C154.746 63.782 154.675 63.7729 154.608 63.7502C154.541 63.7276 154.479 63.6919 154.425 63.6452L153.025 62.6496C152.975 62.6159 152.931 62.5724 152.898 62.5217C152.864 62.4709 152.841 62.4139 152.83 62.3541C152.819 62.2922 152.821 62.2288 152.836 62.1677C152.851 62.1067 152.878 62.0494 152.916 61.9995C153.247 61.5762 153.676 61.2405 154.166 61.022C154.724 60.7696 155.32 60.6158 155.93 60.5674C156.601 60.5113 157.277 60.5651 157.931 60.7265C158.636 60.8965 159.301 61.2057 159.886 61.6358Z"
      fill="white" />
  </g>
  <path
    d="M119.738 112.195H103.585V73.0605C103.585 69.6615 104.935 66.4018 107.338 63.9983C109.742 61.5949 113.002 60.2446 116.401 60.2446H117.892C121.291 60.2446 124.551 61.5949 126.954 63.9983C129.357 66.4018 130.708 69.6615 130.708 73.0605V101.247C130.702 104.153 129.543 106.937 127.487 108.99C125.43 111.042 122.643 112.195 119.738 112.195Z"
    fill="#263238" />
  <path
    d="M102.012 206.406C101.726 208.028 101.574 209.67 101.557 211.316C101.498 214.299 100.953 215.358 100.88 217.804C100.793 220.6 101.28 221.646 102.412 223.219C103.544 224.792 106.504 226.214 107.786 223.559C109.068 220.904 108.881 219.163 108.477 216.422C108.063 213.585 108.022 212.017 107.767 209.857C107.558 207.952 107.313 206.502 107.313 206.502L102.012 206.406Z"
    fill="#263238" />
  <path
    d="M110.477 186.598L100.657 186.421C100.802 192.977 101.844 200.255 102.021 206.425C102.057 207.584 101.994 215.422 102.43 217.79C103.089 221.373 107.335 220.886 107.563 218.745C107.79 216.604 107.29 207.452 107.304 206.506C107.263 202.56 109.122 195.9 110.081 188.817C110.122 188.476 110.431 186.939 110.477 186.598Z"
    fill="#FFBF9D" />
  <path
    d="M123.093 201.306C123.093 201.306 122.706 201.096 122.638 201.51C122.543 202.001 122.397 203.015 122.183 203.824C121.902 204.947 121.665 206.797 121.833 207.716C122.002 208.634 124.138 209.807 125.525 210.234C127.234 210.762 128.792 211.689 130.071 212.939C131.435 214.231 134.404 215.449 136.436 215.435C138.823 215.435 140.487 214.64 141.273 213.362C142.06 212.085 140.555 211.93 137.827 210.18L135.713 208.816C131.39 205.993 129.803 204.483 128.589 201.66L123.093 201.306Z"
    fill="#263238" />
  <path
    d="M128.626 199.555C128.553 197.528 129.953 180.293 129.953 180.293L120.629 184.543C122.624 196.464 123.052 199.278 123.084 201.228C123.043 201.392 123.026 201.56 123.034 201.728C123.034 204.042 125.657 205.293 127.694 206.838C129.425 208.195 131.27 209.399 133.208 210.439C134.69 211.18 137.7 211.248 138.073 210.298C135.59 208.402 131.981 205.565 130.008 203.401C129.044 202.383 128.698 201.587 128.626 199.555Z"
    fill="#FFBF9D" />
  <path
    d="M104.68 122.628C101.098 130.489 101.098 136.572 101.694 146.605C102.221 155.811 103.098 163.926 103.098 163.926C102.962 165.558 100.693 168.745 100.398 175.965C100.125 182.711 100.852 191.29 100.852 191.29C100.852 191.29 105.949 194.113 109.718 191.263C109.718 191.263 113.355 173.901 114.419 165.454C115.328 158.084 116.964 148.669 116.964 148.669L120.406 165.404C119.663 167.778 119.125 170.212 118.797 172.678C118.315 177.647 121.097 187.403 121.097 187.403C121.097 187.403 126.361 188.972 129.576 186.121C129.576 186.121 130.776 170.259 131.226 164.276C131.826 156.261 130.562 134.567 129.576 123.078L104.68 122.628Z"
    fill="#455A64" />
  <path
    d="M116.973 148.655L118.387 136.044C118.387 136.044 124.725 135.199 127.598 132.498C126.776 133.785 125.68 134.874 124.389 135.69C123.098 136.506 121.644 137.027 120.128 137.217L118.083 148.951L120.406 165.404L116.973 148.655Z"
    fill="#263238" />
  <path
    d="M142.637 119.528C142.899 117.226 143.014 114.911 142.983 112.595C142.842 110.594 142.482 110.267 139.687 106.726C135.913 101.938 132.69 97.633 129.28 93.355C126.843 90.3 124.279 89.8317 121.788 89.9681C120.042 90.0635 123.452 98.4605 125.166 103.43L134.954 113.968C135.257 114.384 135.396 114.897 135.345 115.409L134.754 124.374L137.686 128.302C137.686 128.302 142.128 124.474 142.637 119.528Z"
    fill="#FFBF9D" />
  <path
    d="M112.35 90.2407C110.454 90.3725 107.008 90.6953 107.008 90.6953C105.021 91.8046 104.517 92.7184 104.149 95.3552C103.989 96.4827 104.908 99.4787 105.694 103.739L107.185 111.635L107.022 115.554C106.249 117.946 104.499 120.914 102.953 125.292C110.545 129.529 116.91 129.688 122.684 128.929C127.084 128.361 129.417 127.297 130.194 126.242C130.03 121.919 129.739 119.246 129.648 114.727C129.617 112.831 129.73 110.912 129.808 108.73C132.758 106.303 132.794 102.266 131.171 99.6378C127.43 93.5776 123.788 89.7633 121.379 89.9588L112.35 90.2407Z"
    fill="#039D71" />
  <path opacity="0.6"
    d="M112.35 90.2407C110.454 90.3725 107.008 90.6953 107.008 90.6953C105.021 91.8046 104.517 92.7184 104.149 95.3552C103.989 96.4827 104.908 99.4787 105.694 103.739L107.185 111.635L107.022 115.554C106.249 117.946 104.499 120.914 102.953 125.292C110.545 129.529 116.91 129.688 122.684 128.929C127.084 128.361 129.417 127.297 130.194 126.242C130.03 121.919 129.739 119.246 129.648 114.727C129.617 112.831 129.73 110.912 129.808 108.73C132.758 106.303 132.794 102.266 131.171 99.6378C127.43 93.5776 123.788 89.7633 121.379 89.9588L112.35 90.2407Z"
    fill="white" />
  <path opacity="0.1"
    d="M123.929 108.789C123.929 108.789 120.465 111.481 116.505 110.076C115.393 109.726 114.391 109.094 113.594 108.243C112.798 107.391 112.235 106.349 111.959 105.216C111.959 105.216 111.541 109.74 116.528 111.281C121.361 112.767 123.929 108.789 123.929 108.789Z"
    fill="black" />
  <path
    d="M128.63 77.825C128.48 84.3898 126.357 86.0083 125.284 86.4629C124.211 86.9175 122.156 86.6447 120.156 86.3129V90.2772C120.156 90.2772 122.465 92.6958 122.293 94.5007C122.12 96.3055 118.656 96.5101 116.073 94.7416C114.648 93.7629 113.36 92.5995 112.241 91.2819C112.026 91.0277 111.908 90.7055 111.909 90.3727V81.0983C111.909 81.0983 110.813 82.2576 108.877 80.9301C108.459 80.6634 108.101 80.3127 107.826 79.9002C107.551 79.4878 107.365 79.0226 107.279 78.5343C107.194 78.046 107.211 77.5453 107.329 77.0639C107.448 76.5826 107.665 76.1311 107.967 75.7383C108.813 74.7427 110.959 74.6745 111.986 76.1929C112.568 77.3249 112.645 78.466 113.296 78.0114C115.023 76.7657 114.096 73.9198 116.182 72.5559C116.867 72.1985 117.578 71.8945 118.31 71.6467C122.033 70.3601 125.261 69.2781 126.039 66.7322C127.503 67.5687 128.812 70.0828 128.63 77.825Z"
    fill="#FFBF9D" />
  <path
    d="M121.288 83.6897C121.765 83.6897 122.152 83.303 122.152 82.8259C122.152 82.3489 121.765 81.9622 121.288 81.9622C120.811 81.9622 120.424 82.3489 120.424 82.8259C120.424 83.303 120.811 83.6897 121.288 83.6897Z"
    fill="#B16668" />
  <path
    d="M120.715 76.8293C120.715 77.0072 120.662 77.1811 120.564 77.3294C120.466 77.4778 120.327 77.5942 120.163 77.6642C120 77.7341 119.819 77.7546 119.644 77.723C119.469 77.6915 119.307 77.6093 119.179 77.4866C119.05 77.364 118.96 77.2062 118.92 77.033C118.88 76.8597 118.891 76.6785 118.953 76.5117C119.015 76.345 119.125 76.2001 119.268 76.0949C119.412 75.9898 119.583 75.929 119.76 75.9201C119.883 75.9139 120.007 75.9329 120.122 75.9758C120.238 76.0187 120.343 76.0847 120.433 76.1698C120.522 76.2548 120.593 76.3572 120.642 76.4705C120.69 76.5839 120.715 76.706 120.715 76.8293Z"
    fill="#263238" />
  <path
    d="M127.603 76.9203C127.612 77.0315 127.599 77.1435 127.564 77.2497C127.53 77.3559 127.475 77.4542 127.402 77.5388C127.329 77.6234 127.24 77.6927 127.141 77.7426C127.041 77.7926 126.932 77.8221 126.821 77.8296C126.708 77.8399 126.595 77.8263 126.488 77.7895C126.382 77.7528 126.284 77.6937 126.202 77.6163C126.12 77.5389 126.055 77.445 126.012 77.3406C125.969 77.2363 125.949 77.124 125.952 77.0112C125.941 76.8992 125.952 76.7859 125.985 76.6784C126.019 76.5708 126.074 76.4713 126.148 76.3858C126.221 76.3004 126.311 76.2308 126.412 76.1814C126.514 76.132 126.624 76.1038 126.736 76.0986C126.849 76.0933 126.961 76.1111 127.067 76.1508C127.172 76.1905 127.269 76.2513 127.35 76.3295C127.431 76.4078 127.495 76.5017 127.538 76.6056C127.582 76.7096 127.604 76.8213 127.603 76.934V76.9203Z"
    fill="#263238" />
  <path
    d="M119.547 79.1662C118.763 79.1662 118.011 78.855 117.456 78.3009C116.901 77.7469 116.588 76.9952 116.587 76.2111C116.587 74.2017 118.66 74.2017 119.547 74.2017C120.433 74.2017 122.502 74.2017 122.502 76.2111C122.501 76.9945 122.189 77.7454 121.635 78.2993C121.081 78.8532 120.33 79.165 119.547 79.1662ZM119.547 74.6654C117.728 74.6654 117.055 75.12 117.055 76.2111C117.055 76.8743 117.319 77.5103 117.788 77.9792C118.257 78.4481 118.893 78.7115 119.556 78.7115C120.219 78.7115 120.855 78.4481 121.324 77.9792C121.793 77.5103 122.056 76.8743 122.056 76.2111C122.038 75.0973 121.338 74.6654 119.547 74.6654Z"
    fill="#455A64" />
  <path
    d="M127.053 79.1662C126.268 79.1662 125.516 78.855 124.961 78.3009C124.407 77.7469 124.094 76.9952 124.093 76.2111C124.093 74.2017 126.166 74.2017 127.053 74.2017C127.939 74.2017 130.008 74.2017 130.008 76.2111C130.006 76.9945 129.695 77.7454 129.141 78.2993C128.587 78.8532 127.836 79.165 127.053 79.1662ZM127.053 74.6654C125.261 74.6654 124.561 75.12 124.561 76.2111C124.561 76.8743 124.825 77.5103 125.294 77.9792C125.763 78.4481 126.399 78.7115 127.062 78.7115C127.725 78.7115 128.361 78.4481 128.83 77.9792C129.299 77.5103 129.562 76.8743 129.562 76.2111C129.544 75.0973 128.844 74.6654 127.053 74.6654Z"
    fill="#455A64" />
  <path d="M122.961 75.2563L123.106 80.78L126.011 79.8799L122.961 75.2563Z" fill="#FFBF9D" />
  <path
    d="M120.151 86.3264C118.042 86.0491 113.7 84.8034 113.023 83.085C113.295 83.9535 113.827 84.718 114.546 85.2763C115.841 86.3901 120.151 87.6403 120.151 87.6403V86.3264Z"
    fill="#FFBF9D" />
  <path
    d="M120.256 72.5741L118.328 73.7516C118.176 73.4869 118.132 73.174 118.205 72.8777C118.278 72.5813 118.462 72.3245 118.719 72.1604C118.846 72.0832 118.988 72.0326 119.135 72.0117C119.282 71.9907 119.432 71.9999 119.576 72.0386C119.72 72.0772 119.854 72.1446 119.971 72.2367C120.088 72.3287 120.185 72.4435 120.256 72.5741Z"
    fill="#263238" />
  <path
    d="M128.098 73.8834L125.952 73.1333C125.994 72.991 126.064 72.8588 126.159 72.7447C126.253 72.6306 126.37 72.5371 126.502 72.4698C126.634 72.4025 126.778 72.363 126.926 72.3535C127.074 72.3441 127.222 72.365 127.362 72.4149C127.65 72.5184 127.887 72.7285 128.024 73.0019C128.161 73.2752 128.187 73.5909 128.098 73.8834Z"
    fill="#263238" />
  <path
    d="M122.27 76.4474C122.239 76.4474 122.209 76.4412 122.18 76.4293C122.152 76.4174 122.126 76.3999 122.104 76.3779C122.083 76.3559 122.066 76.3298 122.054 76.3011C122.043 76.2724 122.038 76.2418 122.038 76.211C122.038 75.8336 122.784 75.5881 123.457 75.5881C124.129 75.5881 124.561 75.8336 124.561 76.211C124.547 76.2604 124.517 76.3038 124.476 76.3348C124.435 76.3657 124.385 76.3824 124.334 76.3824C124.283 76.3824 124.233 76.3657 124.192 76.3348C124.151 76.3038 124.121 76.2604 124.107 76.211C124.107 76.1655 123.875 76.0519 123.47 76.0519C123.144 76.0449 122.82 76.1005 122.515 76.2155C122.516 76.2471 122.509 76.2785 122.497 76.3075C122.484 76.3366 122.466 76.3628 122.443 76.3845C122.42 76.4062 122.393 76.423 122.363 76.4338C122.333 76.4446 122.302 76.4492 122.27 76.4474Z"
    fill="#455A64" />
  <path
    d="M116.828 76.2473H116.801L111.604 75.7927C111.361 75.552 111.072 75.3633 110.754 75.238L116.855 75.8018C116.916 75.8097 116.972 75.8413 117.01 75.8897C117.048 75.9381 117.066 75.9996 117.06 76.0609C117.049 76.1142 117.02 76.1621 116.978 76.1962C116.935 76.2303 116.882 76.2484 116.828 76.2473Z"
    fill="#455A64" />
  <path
    d="M95.4925 81.6666C97.1928 79.3934 98.3521 77.6795 99.9023 75.7564C100.784 74.6517 101.348 73.8606 102.175 72.7286C102.757 71.9467 103.085 71.2875 103.748 71.0465C104.466 70.7527 105.112 70.3094 105.644 69.7463C105.972 69.3842 106.275 69.0016 106.554 68.6006C107.528 67.2891 108.685 66.124 109.99 65.1409C111.354 64.1135 112.877 63.3224 114.282 62.345C115.119 61.7585 116.014 60.7856 114.996 59.8764C114.684 59.6133 114.31 59.4335 113.909 59.3536C111.432 58.8171 109.277 59.6673 106.854 60.2856C105.801 60.5483 104.772 60.8964 103.776 61.3266C103.286 61.5204 102.827 61.7837 102.412 62.1086C101.832 62.6931 101.357 63.3728 101.007 64.118C99.9478 66.0093 97.6747 67.7005 96.0835 69.1962C94.2241 70.9465 92.5602 72.5513 90.4371 74.4789C88.5276 76.2201 86.6591 77.8204 84.9088 79.7208C83.4586 81.2892 83.9996 82.5167 84.1905 82.944C85.3725 85.3717 86.6955 86.2446 88.2821 87.7494C91.0099 90.3544 100.443 97.8512 103.567 100.329C104.238 100.856 104.765 101.544 105.099 102.329L105.699 103.716C109.263 104.371 111.641 99.0196 108.69 92.5775C108.202 91.5358 107.455 90.6361 106.522 89.9635C102.794 87.2493 95.4925 81.6666 95.4925 81.6666Z"
    fill="#FFBF9D" />
  <path
    d="M95.4925 81.6665C94.358 83.0621 92.8462 84.1021 91.1372 84.6625C91.1372 84.6625 93.4103 85.2444 96.5245 82.4485L95.4925 81.6665Z"
    fill="#FFBF9D" />
  <path
    d="M141.71 114.786L141.128 114.286C141.041 114.229 140.942 114.193 140.838 114.181C140.735 114.169 140.63 114.182 140.532 114.218L134.218 115.936C133.899 116.042 133.608 116.216 133.363 116.445C133.118 116.674 132.926 116.953 132.799 117.264L128.253 130.371C128.198 130.477 128.177 130.598 128.191 130.717C128.206 130.836 128.256 130.948 128.335 131.039L128.935 131.557C129.022 131.617 129.123 131.655 129.228 131.668C129.333 131.681 129.44 131.668 129.539 131.63L135.863 129.911C136.181 129.805 136.473 129.632 136.718 129.403C136.962 129.174 137.155 128.894 137.282 128.584C138.191 126.006 140.919 118.055 141.828 115.477C141.937 115.154 141.883 114.909 141.71 114.786Z"
    fill="#455A64" />
  <path
    d="M128.848 130.875L133.395 117.768C133.521 117.458 133.713 117.179 133.958 116.951C134.203 116.722 134.495 116.55 134.813 116.445L141.123 114.727C141.71 114.568 142.033 114.904 141.823 115.477C140.914 118.055 138.186 126.006 137.277 128.584C137.15 128.894 136.958 129.174 136.713 129.403C136.468 129.632 136.177 129.805 135.859 129.911L129.549 131.648C128.967 131.784 128.653 131.448 128.848 130.875Z"
    fill="#039D71" />
  <path
    d="M134.126 116.809C133.798 117.058 133.544 117.391 133.39 117.773L128.844 130.875C128.792 130.979 128.77 131.096 128.781 131.212C128.792 131.327 128.836 131.438 128.907 131.53L128.344 131.048C128.263 130.959 128.211 130.847 128.196 130.727C128.18 130.608 128.202 130.487 128.257 130.38L132.803 117.273C132.947 116.916 133.181 116.603 133.481 116.364L134.126 116.809Z"
    fill="#37474F" />
  <path
    d="M139.978 120.76C139.523 122.092 137.945 122.983 135.336 123.601C132.726 124.219 131.285 126.988 131.699 127.829C132.113 128.67 136.331 129.457 138.018 129.216C139.705 128.975 141.396 126.538 141.91 125.783C142.423 125.029 143.014 119.764 142.473 119.041C141.932 118.318 140.791 118.432 140.791 118.432L139.978 120.76Z"
    fill="#FFBF9D" />
</svg>