<svg width="25" height="24" viewBox="0 0 25 24" fill="none" xmlns="http://www.w3.org/2000/svg">
  <path
    d="M16.69 2H8.31C4.67 2 2.5 4.17 2.5 7.81V16.18C2.5 19.83 4.67 22 8.31 22H16.68C20.32 22 22.49 19.83 22.49 16.19V7.81C22.5 4.17 20.33 2 16.69 2ZM17.76 9.96L15.45 12.94C15.16 13.31 14.75 13.55 14.28 13.6C13.81 13.66 13.35 13.53 12.98 13.24L11.15 11.8C11.08 11.74 11 11.74 10.96 11.75C10.92 11.75 10.85 11.77 10.79 11.85L8.41 14.94C8.26 15.13 8.04 15.23 7.82 15.23C7.66 15.23 7.5 15.18 7.36 15.07C7.03 14.82 6.97 14.35 7.22 14.02L9.6 10.93C9.89 10.56 10.3 10.32 10.77 10.26C11.23 10.2 11.7 10.33 12.07 10.62L13.9 12.06C13.97 12.12 14.04 12.12 14.09 12.11C14.13 12.11 14.2 12.09 14.26 12.01L16.57 9.03C16.82 8.7 17.3 8.64 17.62 8.9C17.95 9.17 18.01 9.64 17.76 9.96Z"
    fill="#EE93CA" />
</svg>