<svg width="25" height="24" viewBox="0 0 25 24" fill="#F2F2F2" xmlns="http://www.w3.org/2000/svg">
  <path
    d="M9.55761 20.7714V17.7047C9.55759 16.9246 10.1935 16.2908 10.9814 16.2856H13.8675C14.6591 16.2856 15.3009 16.9209 15.3009 17.7047V17.7047V20.7809C15.3007 21.4432 15.8346 21.9845 16.5034 22H18.4275C20.3455 22 21.9004 20.4607 21.9004 18.5618V18.5618V9.83784C21.8901 9.09083 21.5359 8.38935 20.9384 7.93303L14.3581 2.6853C13.2053 1.77157 11.5666 1.77157 10.4138 2.6853L3.86242 7.94256C3.26265 8.39702 2.90778 9.09967 2.90039 9.84736V18.5618C2.90039 20.4607 4.45527 22 6.3733 22H8.29735C8.98275 22 9.53837 21.4499 9.53837 20.7714V20.7714"
    stroke="#F2F2F2" stroke-width="1.5" stroke-linecap="round" stroke-linejoin="round" />
</svg>