<svg width="24" height="24" viewBox="0 0 24 24" fill="none" xmlns="http://www.w3.org/2000/svg">
  <path
    d="M11.9994 1.75C17.7937 1.75 22.2851 5.99457 22.2851 11.7271C22.2851 17.4597 17.7937 21.7043 11.9994 21.7043C10.9936 21.7066 9.9921 21.5737 9.02172 21.3091C8.83942 21.2588 8.6453 21.273 8.47229 21.3494L6.42801 22.2503C6.30464 22.3046 6.16982 22.3279 6.03537 22.318C5.90093 22.3081 5.77097 22.2653 5.6569 22.1935C5.54283 22.1216 5.44813 22.0229 5.38112 21.9059C5.31412 21.7889 5.27684 21.6573 5.27258 21.5226L5.21686 19.6934C5.21308 19.5821 5.18666 19.4727 5.13921 19.3719C5.09176 19.2711 5.02427 19.181 4.94086 19.1071C3.90887 18.1774 3.08716 17.0382 2.53065 15.7655C1.97413 14.4928 1.69562 13.1161 1.71372 11.7271C1.71372 5.99457 6.20515 1.75 11.9994 1.75ZM5.82286 14.6449C5.76174 14.7417 5.73657 14.8569 5.75174 14.9704C5.76691 15.0839 5.82147 15.1885 5.90588 15.2658C5.9903 15.3432 6.0992 15.3885 6.21359 15.3937C6.32797 15.399 6.44057 15.3639 6.53172 15.2946L9.77686 12.8311C9.88411 12.7505 10.0147 12.7069 10.1489 12.7069C10.2831 12.7069 10.4136 12.7505 10.5209 12.8311L12.9209 14.6311C13.0914 14.7586 13.2864 14.8494 13.4937 14.8978C13.701 14.9463 13.916 14.9513 14.1253 14.9126C14.3347 14.8738 14.5337 14.7922 14.7099 14.6728C14.8862 14.5534 15.0358 14.3989 15.1494 14.2189L18.1709 9.42571C18.232 9.32889 18.2572 9.21367 18.242 9.10017C18.2268 8.98667 18.1723 8.88211 18.0878 8.80474C18.0034 8.72737 17.8945 8.68211 17.7801 8.67686C17.6658 8.6716 17.5532 8.70669 17.462 8.776L14.2169 11.2394C14.1096 11.3201 13.9791 11.3637 13.8449 11.3637C13.7107 11.3637 13.5801 11.3201 13.4729 11.2394L11.0729 9.43943C10.9024 9.31197 10.7073 9.22117 10.5001 9.17274C10.2928 9.12431 10.0777 9.1193 9.86838 9.15802C9.65906 9.19675 9.46002 9.27837 9.28378 9.39775C9.10753 9.51713 8.9579 9.6717 8.84429 9.85172L5.82286 14.6449Z"
    fill="#333333" />
</svg>