<svg width="24" height="24" viewBox="0 0 24 24" fill="none" xmlns="http://www.w3.org/2000/svg">
  <path
    d="M6.72693 20.1336C7.89265 20.1336 9.80922 20.0265 12.4012 19.549C11.9529 20.7679 10.7846 21.6413 9.41236 21.6413C8.2715 21.6413 7.27208 21.037 6.70808 20.1336H6.72693ZM21.3635 13.4839C21.5752 14.5742 20.8107 15.5385 19.0895 16.3519C18.1467 16.7968 16.0501 17.6436 12.5872 18.3173C9.91636 18.8359 7.9595 18.955 6.72779 18.955C6.36179 18.955 6.05922 18.9448 5.82093 18.931C3.9215 18.8222 2.85007 18.2136 2.63836 17.1233C2.31693 15.4716 2.82522 14.8339 3.66779 13.7779L3.88979 13.4993C4.45808 12.7785 4.68008 12.0705 4.31665 10.2028C3.50322 6.0199 5.38722 3.16133 9.48436 2.36076C13.5832 1.56962 16.4015 3.5119 17.2149 7.69561C17.5775 9.56333 18.0489 10.1359 18.8461 10.591V10.5919L19.1564 10.7676C20.3324 11.431 21.0421 11.8313 21.3635 13.4839Z"
    fill="#79B669" />
</svg>