<svg width="24" height="24" viewBox="0 0 24 24" fill="none" xmlns="http://www.w3.org/2000/svg">
  <path opacity="0.4" d="M19.97 10V18C19.97 21 18.97 22 15.97 22H7.97C4.97 22 3.97 21 3.97 18V10H19.97Z"
    fill="#1890FF" />
  <path
    d="M21.5 7V8C21.5 9.1 20.97 10 19.5 10H4.5C2.97 10 2.5 9.1 2.5 8V7C2.5 5.9 2.97 5 4.5 5H19.5C20.97 5 21.5 5.9 21.5 7Z"
    fill="#1890FF" />
  <path opacity="0.4" d="M11.64 5H6.12C5.78 4.63 5.79 4.06 6.15 3.7L7.57 2.28C7.94 1.91 8.55 1.91 8.92 2.28L11.64 5Z"
    fill="#1890FF" />
  <path opacity="0.4"
    d="M17.87 5H12.35L15.07 2.28C15.44 1.91 16.05 1.91 16.42 2.28L17.84 3.7C18.2 4.06 18.21 4.63 17.87 5Z"
    fill="#1890FF" />
  <path opacity="0.6"
    d="M8.94 10V15.14C8.94 15.94 9.82 16.41 10.49 15.98L11.43 15.36C11.77 15.14 12.2 15.14 12.53 15.36L13.42 15.96C14.08 16.4 14.97 15.93 14.97 15.13V10H8.94Z"
    fill="#1890FF" />
</svg>