<svg width="24" height="24" viewBox="0 0 24 24" fill="none" xmlns="http://www.w3.org/2000/svg">
  <path opacity="0.4" d="M8.67 14H4C2.9 14 2 14.9 2 16V22H8.67V14Z" fill="#FED843" />
  <path d="M13.33 10H10.66C9.56 10 8.66 10.9 8.66 12V22H15.33V12C15.33 10.9 14.44 10 13.33 10Z" fill="#FFB64C" />
  <path opacity="0.4" d="M20 17H15.33V22H22V19C22 17.9 21.1 17 20 17Z" fill="#FED843" />
  <path
    d="M15.01 4.84999C15.32 4.53999 15.44 4.16999 15.34 3.84999C15.24 3.52999 14.93 3.3 14.49 3.23L13.53 3.06999C13.49 3.05999 13.4 2.99998 13.38 2.95998L12.85 1.89998C12.45 1.08998 11.54 1.08998 11.14 1.89998L10.61 2.95998C10.59 2.99998 10.5 3.05999 10.46 3.06999L9.5 3.23C9.06 3.3 8.76 3.52999 8.65 3.84999C8.55 4.16999 8.67 4.53999 8.98 4.84999L9.72 5.59999C9.75 5.62999 9.79 5.75 9.78 5.79L9.57 6.70998C9.41 7.38998 9.67 7.69997 9.84 7.82997C10.01 7.94997 10.38 8.10999 10.99 7.74999L11.89 7.21999C11.93 7.18999 12.06 7.18999 12.1 7.21999L13 7.74999C13.28 7.91999 13.51 7.96999 13.69 7.96999C13.9 7.96999 14.05 7.88997 14.14 7.82997C14.31 7.70997 14.57 7.39998 14.41 6.70998L14.2 5.79C14.19 5.74 14.22 5.62999 14.26 5.59999L15.01 4.84999Z"
    fill="#FFB64C" />
</svg>