<svg width="25" height="24" viewBox="0 0 25 24" fill="none" xmlns="http://www.w3.org/2000/svg">
  <path
    d="M11.7678 4.75716C11.6023 3.87796 11.0782 3.31251 10.2439 3.12288C9.94045 3.05392 9.60601 3.01599 9.24743 3.0091C8.4096 2.99875 7.52695 2.9953 6.38571 3.0091C6.01679 3.0091 5.72027 3.03323 5.44789 3.08495C4.61696 3.23665 4.06186 3.7228 3.84119 4.49167C3.75844 4.77785 3.71362 5.07436 3.71017 5.35019C3.69638 6.23974 3.69983 7.14307 3.70328 8.01883V8.10503C3.70673 8.47739 3.71017 8.83942 3.74121 9.20489C3.82051 10.1186 4.35148 10.7806 5.1962 11.0185C5.45824 11.0909 5.74786 11.1357 6.03403 11.146C6.2478 11.1529 6.4788 11.1564 6.76497 11.1564C6.93047 11.1564 7.09942 11.1564 7.26147 11.1529H7.29939C7.39938 11.1529 7.49937 11.1529 7.59591 11.1529H7.75796C7.86484 11.1529 7.97172 11.1529 8.07516 11.1529H8.0924C8.32685 11.1529 8.5682 11.1564 8.80955 11.1495C8.86472 11.1495 8.91988 11.146 8.97505 11.146C9.27501 11.1426 9.58187 11.1357 9.88873 11.1081C10.8507 11.0219 11.5265 10.4358 11.7368 9.49796C11.7988 9.21868 11.8333 8.90148 11.8368 8.55669C11.8471 7.67749 11.8471 6.75002 11.8368 5.63981C11.8402 5.30882 11.8161 5.0192 11.7678 4.75716ZM10.2542 6.42592C10.2542 6.58107 10.2542 6.73968 10.2542 6.89483V7.15687C10.2542 7.68784 10.2542 8.23604 10.2508 8.77391C10.2508 8.8739 10.2404 8.97389 10.2232 9.07387C10.1646 9.40487 10.0232 9.52899 9.68876 9.54623C9.35431 9.56347 9.02677 9.57381 8.70956 9.57036H8.55441C7.67521 9.56692 6.76842 9.56347 5.87888 9.54623C5.48237 9.53933 5.30998 9.36349 5.30308 8.96699C5.28929 7.5913 5.28929 6.36386 5.30308 5.21572C5.30998 4.7744 5.48582 4.60545 5.95818 4.59856C6.1685 4.59511 6.39605 4.59511 6.67188 4.59511C6.85807 4.59511 7.0408 4.59511 7.22354 4.59511C7.40628 4.59511 7.59246 4.59511 7.77864 4.59511H7.78209L7.94414 4.59166H8.17859C8.5751 4.59166 8.97505 4.59166 9.37155 4.59166H9.39569C9.4612 4.59166 9.53015 4.59166 9.59911 4.59511C10.0646 4.61235 10.2404 4.79164 10.2508 5.2502C10.2577 5.64326 10.2542 6.04321 10.2542 6.42592Z"
    fill="#8995A3" />
  <path
    d="M20.0495 17.7106C18.6393 17.7071 17.0947 17.7071 15.188 17.7106C14.826 17.7106 14.5019 17.9347 14.3846 18.2691C14.2915 18.5277 14.3295 18.8036 14.4812 19.0208C14.6432 19.2518 14.9122 19.3863 15.2156 19.3897C15.5017 19.3931 15.8155 19.3931 16.1982 19.3931C16.4154 19.3931 16.6326 19.3931 16.8464 19.3931H16.9016C17.3705 19.3931 17.8359 19.3931 18.3048 19.3931H18.3497C18.8979 19.3931 19.4633 19.3931 20.0219 19.3931C20.5115 19.3897 20.9011 19.0242 20.908 18.5622C20.9114 18.345 20.8252 18.1381 20.6666 17.9761C20.5046 17.8037 20.2839 17.714 20.0495 17.7106Z"
    fill="#8995A3" />
  <path
    d="M20.0737 14.4523C19.5013 14.4488 18.9186 14.4488 18.3566 14.4523H18.1773C17.9946 14.4523 17.8119 14.4523 17.6257 14.4523H16.9947C16.4017 14.4523 15.8087 14.4523 15.2156 14.4523C14.9674 14.4523 14.7364 14.5454 14.5709 14.7143C14.4192 14.8695 14.3364 15.0729 14.3364 15.2867C14.3399 15.7521 14.7157 16.1073 15.2053 16.1073C15.8638 16.1073 16.5534 16.1107 17.2912 16.1107C18.1291 16.1107 19.0359 16.1107 20.0461 16.1073C20.1357 16.1073 20.2667 16.0969 20.3943 16.0452C20.7529 15.9004 20.9735 15.5039 20.8977 15.1453C20.808 14.7247 20.484 14.4557 20.0737 14.4523Z"
    fill="#8995A3" />
  <path
    d="M21.6906 5.63981C21.6871 5.30882 21.663 5.0192 21.6147 4.75716C21.4492 3.87796 20.9252 3.31251 20.0908 3.12288C19.7874 3.05392 19.4529 3.01599 19.0944 3.0091C18.2565 2.99875 17.3739 2.9953 16.2326 3.0091C15.8637 3.01254 15.5672 3.03668 15.2948 3.08495C14.4639 3.23665 13.9088 3.7228 13.6881 4.49167C13.6054 4.77785 13.5605 5.07436 13.5571 5.35019C13.5433 6.23974 13.5468 7.14307 13.5502 8.01883V8.10503C13.5537 8.47739 13.5571 8.83942 13.5881 9.20489C13.6674 10.1186 14.1984 10.7806 15.0431 11.0185C15.3052 11.0909 15.5948 11.1357 15.881 11.146C16.0947 11.1529 16.3257 11.1564 16.6119 11.1564C16.7774 11.1564 16.9463 11.1564 17.1084 11.1529H17.1463C17.2463 11.1529 17.3463 11.1529 17.4428 11.1529H17.6049C17.7118 11.1529 17.8186 11.1529 17.9221 11.1529H17.9393C18.1738 11.1529 18.4151 11.1564 18.6565 11.1495C18.7116 11.1495 18.7668 11.146 18.822 11.146C19.1219 11.1426 19.4288 11.1357 19.7357 11.1081C20.6976 11.0219 21.3734 10.4358 21.5837 9.49796C21.6458 9.21868 21.6802 8.90148 21.6871 8.55669C21.7009 7.67404 21.7009 6.75002 21.6906 5.63981ZM20.1011 6.42247C20.1011 6.58107 20.1011 6.73968 20.1011 6.89483V7.16376C20.1011 7.69128 20.1011 8.23604 20.0977 8.77046C20.0977 8.87045 20.0873 8.97044 20.0701 9.07043C20.0115 9.40142 19.8701 9.52554 19.5357 9.54278C19.2012 9.56002 18.8737 9.57036 18.5565 9.56692H18.4013C17.5221 9.56347 16.6153 9.56002 15.7258 9.54278C15.3293 9.53589 15.1569 9.36004 15.15 8.96354C15.1362 7.58785 15.1362 6.36041 15.15 5.21228C15.1569 4.77095 15.3327 4.60201 15.8051 4.59511C16.0154 4.59166 16.243 4.59166 16.5188 4.59166C16.705 4.59166 16.8877 4.59166 17.0705 4.59166C17.2532 4.59166 17.4394 4.59166 17.6256 4.59166H17.629L17.7911 4.58821H18.0255C18.422 4.58821 18.822 4.58821 19.2185 4.58821H19.2426C19.3081 4.58821 19.3771 4.58821 19.446 4.59166C19.9115 4.6089 20.0873 4.78819 20.0977 5.24675C20.1011 5.64326 20.1011 6.03976 20.1011 6.42247Z"
    fill="#8995A3" />
  <path
    d="M11.7678 14.6043C11.6023 13.7251 11.0782 13.1597 10.2439 12.97C9.94045 12.9011 9.60601 12.8632 9.24743 12.8563C8.4096 12.8459 7.52695 12.8425 6.38571 12.8563C6.01679 12.8597 5.72027 12.8838 5.44789 12.9321C4.61696 13.0838 4.06186 13.57 3.84119 14.3388C3.75844 14.625 3.71362 14.9215 3.71017 15.1974C3.69638 16.0869 3.69983 16.9902 3.70328 17.866V17.9522C3.70673 18.3246 3.71017 18.6866 3.74121 19.0521C3.82395 19.9623 4.35492 20.6243 5.19965 20.8622C5.46168 20.9346 5.7513 20.9794 6.03748 20.9898C6.25124 20.9966 6.48225 21.0001 6.76842 21.0001C6.93392 21.0001 7.10286 21.0001 7.26491 20.9966C7.37524 20.9966 7.48902 20.9966 7.59935 20.9932H7.7614C7.86829 20.9932 7.97517 20.9932 8.07861 20.9932H8.09585C8.3303 20.9932 8.57165 20.9966 8.813 20.9898C8.86817 20.9898 8.92333 20.9863 8.9785 20.9863C9.27846 20.9829 9.58532 20.976 9.89218 20.9484C10.8541 20.8622 11.5299 20.276 11.7402 19.3382C11.8023 19.059 11.8368 18.7418 11.8402 18.397C11.8506 17.5178 11.8506 16.5903 11.8402 15.4801C11.8402 15.1525 11.8161 14.8664 11.7678 14.6043ZM10.2542 16.2731C10.2542 16.4282 10.2542 16.5868 10.2542 16.742V17.004C10.2542 17.535 10.2542 18.0832 10.2508 18.6211C10.2508 18.7211 10.2404 18.8211 10.2232 18.921C10.1646 19.252 10.0232 19.3762 9.68875 19.3934C9.35776 19.4106 9.02677 19.421 8.70956 19.4175H8.54751C7.67176 19.4141 6.76497 19.4106 5.87888 19.3934C5.48237 19.3865 5.30998 19.2107 5.30308 18.8142C5.28929 17.4385 5.28929 16.211 5.30308 15.0629C5.30998 14.6216 5.48582 14.4526 5.95818 14.4457C6.1685 14.4423 6.39605 14.4423 6.67188 14.4423C6.85807 14.4423 7.0408 14.4423 7.22354 14.4423C7.40972 14.4423 7.59246 14.4423 7.77864 14.4423C7.77864 14.4423 7.77864 14.4423 7.78209 14.4423L7.94414 14.4388H8.17859C8.5751 14.4388 8.97505 14.4388 9.37155 14.4388H9.39569C9.4612 14.4388 9.53015 14.4388 9.59911 14.4423C10.0646 14.4595 10.2404 14.6388 10.2508 15.0974C10.2577 15.4904 10.2542 15.8869 10.2542 16.2731Z"
    fill="#8995A3" />
</svg>