<svg width="25" height="24" viewBox="0 0 25 24" fill="none" xmlns="http://www.w3.org/2000/svg">
  <path
    d="M8.3938 15.8522C8.3938 18.264 4.99697 21.5 4.99697 21.5C4.99697 21.5 1.6001 18.264 1.6001 15.8522C1.6001 13.9381 3.12092 12.3863 4.99697 12.3863C6.87298 12.3863 8.3938 13.9381 8.3938 15.8522Z"
    stroke="#8995A3" stroke-width="1.40625" stroke-miterlimit="10" />
  <path
    d="M5.64883 15.8523C5.64883 16.2197 5.35689 16.5176 4.99678 16.5176C4.63667 16.5176 4.34473 16.2197 4.34473 15.8523C4.34473 15.4848 4.63667 15.187 4.99678 15.187C5.35689 15.187 5.64883 15.4848 5.64883 15.8523Z"
    stroke="#8995A3" stroke-miterlimit="10" />
  <path
    d="M22.8301 5.96598C22.8301 8.37773 19.4333 11.6138 19.4333 11.6138C19.4333 11.6138 16.0364 8.37773 16.0364 5.96598C16.0364 4.05185 17.5572 2.50011 19.4333 2.50011C21.3093 2.50011 22.8301 4.05185 22.8301 5.96598Z"
    stroke="#8995A3" stroke-width="1.40625" stroke-miterlimit="10" />
  <path
    d="M20.0854 5.96604C20.0854 6.33347 19.7934 6.63135 19.4333 6.63135C19.0732 6.63135 18.7812 6.33347 18.7812 5.96604C18.7812 5.59861 19.0732 5.30073 19.4333 5.30073C19.7934 5.30073 20.0854 5.59861 20.0854 5.96604Z"
    stroke="#8995A3" stroke-miterlimit="10" />
  <path
    d="M7.6394 21.5H17.0108C18.3486 21.5 19.4331 20.3934 19.4331 19.0284V19.0284C19.4331 17.6634 18.3486 16.5568 17.0108 16.5568H13.316C11.9782 16.5568 10.8937 15.4503 10.8937 14.0853C10.8937 12.7202 11.9782 11.6137 13.316 11.6137H16.7906"
    stroke="#8995A3" stroke-width="1.40625" stroke-miterlimit="10" />
</svg>