<svg width="25" height="24" viewBox="0 0 25 24" fill="none" xmlns="http://www.w3.org/2000/svg">
  <path
    d="M5.41915 11.6201C3.31333 11.6201 1.6001 13.3333 1.6001 15.4392C1.6001 16.5038 2.18221 17.7897 3.33032 19.2611C4.15034 20.312 4.96073 21.0719 4.99485 21.1038L5.4192 21.5L5.84354 21.1038C5.87766 21.0719 6.68805 20.312 7.50807 19.2611C8.65613 17.7897 9.23829 16.5038 9.23829 15.4392C9.23825 13.3333 7.52502 11.6201 5.41915 11.6201ZM5.41915 16.6747C4.73788 16.6747 4.18362 16.1205 4.18362 15.4392C4.18362 14.7579 4.73788 14.2037 5.41915 14.2037C6.10042 14.2037 6.65469 14.7579 6.65469 15.4392C6.65469 16.1205 6.10042 16.6747 5.41915 16.6747Z"
    fill="#31AA52" />
  <path
    d="M19.0073 2.5C16.9015 2.5 15.1882 4.21323 15.1882 6.31906C15.1882 7.38368 15.7703 8.66953 16.9184 10.1409C17.7384 11.1918 18.5488 11.9518 18.5829 11.9836L19.0072 12.3798L19.4316 11.9836C19.4657 11.9518 20.2761 11.1918 21.0961 10.1409C22.2442 8.66953 22.8263 7.38368 22.8263 6.31906C22.8264 4.21327 21.1132 2.5 19.0073 2.5ZM19.0073 7.55463C18.326 7.55463 17.7718 7.00037 17.7718 6.3191C17.7718 5.63783 18.326 5.08357 19.0073 5.08357C19.6886 5.08357 20.2429 5.63783 20.2429 6.3191C20.2429 7.00037 19.6886 7.55463 19.0073 7.55463Z"
    fill="#31AA52" />
  <path
    d="M16.7273 21.2713H7.90649V20.0278H16.7273C17.6417 20.0278 18.3856 19.2839 18.3856 18.3695C18.3856 17.4552 17.6417 16.7113 16.7273 16.7113H13.2496C11.6496 16.7113 10.3478 15.4096 10.3478 13.8095C10.3478 12.2094 11.6496 10.9077 13.2496 10.9077H16.52V12.1513H13.2496C12.3352 12.1513 11.5914 12.8952 11.5914 13.8095C11.5914 14.7239 12.3352 15.4677 13.2496 15.4677H16.7273C18.3274 15.4677 19.6291 16.7695 19.6291 18.3695C19.6291 19.9696 18.3274 21.2713 16.7273 21.2713Z"
    fill="#31AA52" />
</svg>