<svg width="25" height="24" viewBox="0 0 25 24" fill="none" xmlns="http://www.w3.org/2000/svg">
  <path
    d="M12.5 2C10.5222 2 8.58879 2.58649 6.9443 3.6853C5.29981 4.78412 4.01809 6.3459 3.26121 8.17316C2.50433 10.0004 2.3063 12.0111 2.69215 13.9509C3.078 15.8907 4.03041 17.6725 5.42894 19.0711C6.82746 20.4696 8.60929 21.422 10.5491 21.8078C12.4889 22.1937 14.4996 21.9957 16.3268 21.2388C18.1541 20.4819 19.7159 19.2002 20.8147 17.5557C21.9135 15.9112 22.5 13.9778 22.5 12C22.4971 9.34871 21.4426 6.80684 19.5679 4.9321C17.6932 3.05736 15.1513 2.00287 12.5 2V2ZM12.5 20.3333C10.8518 20.3333 9.24066 19.8446 7.87025 18.9289C6.49984 18.0132 5.43174 16.7117 4.80101 15.189C4.17028 13.6663 4.00525 11.9908 4.32679 10.3742C4.64834 8.75774 5.44201 7.27288 6.60745 6.10744C7.77288 4.94201 9.25774 4.14833 10.8743 3.82679C12.4908 3.50525 14.1663 3.67027 15.689 4.301C17.2117 4.93173 18.5132 5.99984 19.4289 7.37025C20.3446 8.74066 20.8333 10.3518 20.8333 12C20.8309 14.2094 19.9522 16.3276 18.3899 17.8899C16.8276 19.4522 14.7094 20.3309 12.5 20.3333ZM14.1667 12C14.168 12.2929 14.0921 12.5809 13.9467 12.8351C13.8012 13.0894 13.5914 13.3008 13.3382 13.4481C13.0851 13.5954 12.7976 13.6734 12.5047 13.6742C12.2119 13.675 11.9239 13.5987 11.67 13.4528C11.416 13.3069 11.2049 13.0967 11.0581 12.8433C10.9112 12.5899 10.8337 12.3023 10.8334 12.0094C10.833 11.7165 10.9099 11.4288 11.0562 11.175C11.2025 10.9213 11.413 10.7106 11.6667 10.5642V7.83333C11.6667 7.61232 11.7545 7.40036 11.9107 7.24408C12.067 7.0878 12.279 7 12.5 7C12.721 7 12.933 7.0878 13.0893 7.24408C13.2455 7.40036 13.3333 7.61232 13.3333 7.83333V10.5642C13.5859 10.7094 13.7959 10.9185 13.9422 11.1706C14.0884 11.4226 14.1659 11.7086 14.1667 12Z"
    fill="#8995A3" />
</svg>