<svg width="20" height="22" viewBox="0 0 20 22" fill="none" xmlns="http://www.w3.org/2000/svg">
  <path
    d="M15.3566 5.93494H4.39014C5.26745 3.303 7.68006 2.64502 9.87334 2.64502C13.7116 2.64502 14.991 4.65553 15.3566 5.93494Z"
    stroke="#8995A3" stroke-width="1.3" stroke-linecap="round" stroke-linejoin="round" />
  <path d="M3.8417 1V14.708H2.19674V19.6429H1.1001H17.5497M18.6464 19.6429H17.5497M17.5497 19.6429V14.708H15.9048V1"
    stroke="#8995A3" stroke-width="1.3" stroke-linecap="round" stroke-linejoin="round" />
  <path d="M15.7219 20.1606V20.9999H14.6252H16.2702H16.8185" stroke="#8995A3" stroke-width="1.3" stroke-linecap="round"
    stroke-linejoin="round" />
  <path d="M4.45089 20.1606V20.9999H3.35425H4.99921H5.54753" stroke="#8995A3" stroke-width="1.3" stroke-linecap="round"
    stroke-linejoin="round" />
  <path d="M13.1631 8.12842H6.58325V10.3217H13.1631V8.12842Z" stroke="#8995A3" />
  <path d="M4.39014 16.9014H5.48678" stroke="#8995A3" stroke-width="1.5" stroke-linecap="round"
    stroke-linejoin="round" />
  <path d="M7.67993 13.6113L11.6799 13.6113" stroke="#8995A3" stroke-linecap="round" stroke-linejoin="round" />
  <path d="M7.67993 15.1113L11.6799 15.1113" stroke="#8995A3" stroke-linecap="round" stroke-linejoin="round" />
  <path d="M7.67993 16.6113H11.6799" stroke="#8995A3" stroke-linecap="round" stroke-linejoin="round" />
  <path d="M14.2598 16.9014L15.3564 16.9014" stroke="#8995A3" stroke-width="1.5" stroke-linecap="round"
    stroke-linejoin="round" />
</svg>