<svg width="18" height="20" viewBox="0 0 18 20" fill="none" xmlns="http://www.w3.org/2000/svg">
  <path
    d="M16.7918 16.3471V13.263C16.7918 12.6003 16.2546 12.0631 15.592 12.0631H15.2783V0.803851C15.2783 0.703132 15.2277 0.609145 15.1438 0.553622L14.3821 0.0502224C14.1827 -0.0815752 13.9168 0.0613989 13.9168 0.300452V3.91654L13.6899 3.30431C13.3846 2.48091 12.5992 1.93444 11.7211 1.93444H6.4774C5.59406 1.93444 4.8052 2.48725 4.50373 3.31755L4.28625 3.91654V0.300452C4.28625 0.0614316 4.02033 -0.0815752 3.82089 0.0502224L3.05925 0.553589C2.97523 0.609112 2.92468 0.703099 2.92468 0.803819V12.0631H2.61105C1.9484 12.0631 1.41121 12.6003 1.41121 13.263V16.3471H0.900033C0.734379 16.3471 0.600098 16.4813 0.600098 16.647V18.3053C0.600098 18.4709 0.734379 18.6053 0.900033 18.6053H2.19409V19.4001C2.19409 19.7314 2.46268 20 2.79402 20H4.38373C4.71507 20 4.98367 19.7314 4.98367 19.4001V18.6053H13.2194V19.4001C13.2194 19.7314 13.4881 20 13.8193 20H15.4091C15.7404 20 16.009 19.7314 16.009 19.4001V18.6053H17.303C17.4687 18.6053 17.603 18.4709 17.603 18.3053V16.6471C17.603 16.4814 17.4687 16.3471 17.303 16.3471L16.7918 16.3471ZM4.68367 5.58742H13.5194V8.54298H4.68367V5.58742ZM4.47821 15.5076H3.45347C3.14036 15.5076 2.88654 15.2538 2.88654 14.9407V14.9264C2.88654 14.6133 3.14036 14.3594 3.45347 14.3594H4.47818C4.79128 14.3594 5.04511 14.6133 5.04511 14.9264V14.9407C5.04514 15.2538 4.79131 15.5076 4.47821 15.5076ZM11.1407 15.6748H7.06237C6.73102 15.6748 6.46243 15.4062 6.46243 15.0749V11.2737C6.46243 10.9424 6.73102 10.6738 7.06237 10.6738H11.1407C11.472 10.6738 11.7406 10.9425 11.7406 11.2737V15.0749C11.7406 15.4062 11.472 15.6748 11.1407 15.6748ZM14.7495 15.5076H13.7248C13.4118 15.5076 13.1579 15.2538 13.1579 14.9407V14.9264C13.1579 14.6133 13.4118 14.3594 13.7248 14.3594H14.7495C15.0626 14.3594 15.3165 14.6133 15.3165 14.9264V14.9407C15.3165 15.2538 15.0626 15.5076 14.7495 15.5076ZM11.0495 12.8693H7.14397C6.97995 12.8693 6.847 12.7364 6.847 12.5723V12.5663C6.847 12.4023 6.97995 12.2694 7.14397 12.2694H11.0495C11.2135 12.2694 11.3464 12.4023 11.3464 12.5663V12.5723C11.3464 12.7364 11.2135 12.8693 11.0495 12.8693ZM11.0495 11.6695H7.14397C6.97995 11.6695 6.847 11.5365 6.847 11.3725V11.3665C6.847 11.2025 6.97995 11.0696 7.14397 11.0696H11.0495C11.2135 11.0696 11.3464 11.2025 11.3464 11.3665V11.3725C11.3464 11.5365 11.2135 11.6695 11.0495 11.6695ZM11.0495 15.269H7.14397C6.97995 15.269 6.847 15.1361 6.847 14.9721V14.9661C6.847 14.802 6.97995 14.6691 7.14397 14.6691H11.0495C11.2135 14.6691 11.3464 14.802 11.3464 14.9661V14.9721C11.3464 15.1361 11.2135 15.269 11.0495 15.269ZM11.0495 14.0692H7.14397C6.97995 14.0692 6.847 13.9362 6.847 13.7722V13.7662C6.847 13.6022 6.97995 13.4693 7.14397 13.4693H11.0495C11.2135 13.4693 11.3464 13.6022 11.3464 13.7662V13.7722C11.3464 13.9362 11.2135 14.0692 11.0495 14.0692Z"
    fill="#31AA52" />
</svg>