<svg width="16" height="22" viewBox="0 0 16 22" fill="none" xmlns="http://www.w3.org/2000/svg">
  <path
    d="M7.66 9.87C7.56 9.86 7.44 9.86 7.33 9.87C4.95 9.79 3.06 7.84 3.06 5.44C3.06 2.99 5.04 1 7.5 1C9.95 1 11.94 2.99 11.94 5.44C11.93 7.84 10.04 9.79 7.66 9.87Z"
    stroke="#333333" stroke-width="1.5" stroke-linecap="round" stroke-linejoin="round" />
  <path
    d="M2.66 13.56C0.240001 15.18 0.240001 17.82 2.66 19.43C5.41 21.27 9.92 21.27 12.67 19.43C15.09 17.81 15.09 15.17 12.67 13.56C9.93 11.73 5.42 11.73 2.66 13.56Z"
    stroke="#333333" stroke-width="1.5" stroke-linecap="round" stroke-linejoin="round" />
</svg>